<svg width="216" height="13" viewBox="0 0 216 13" fill="none" xmlns="http://www.w3.org/2000/svg">
<path d="M204.834 13V0.0410156H209.15V13H204.834ZM209.834 13V10.4121H211.973V8.77148H215.889V13H209.834Z" fill="white"/>
<path d="M192.561 10.3633H194.182V13H190.861L188.234 10.4121V2.62891L190.861 0.0410156H194.182V2.66797H192.561V10.3633ZM196.516 2.66797H194.865V0.0410156H198.215L200.832 2.62891V10.4121L198.215 13H194.865V10.3633H196.516V2.66797Z" fill="white"/>
<path d="M176.596 13H174.877L172.279 10.4121V2.62891L174.877 0.0410156H176.596V13ZM177.279 2.62891V0.0410156H181.879L184.467 2.62891V5.23633H180.15V2.62891H177.279ZM177.279 13V10.4121H180.15V8.51758H184.467V10.4121L181.879 13H177.279Z" fill="white"/>
<path d="M160.201 10.3633H161.822V13H158.502L155.875 10.4121V2.62891L158.502 0.0410156H161.822V2.66797H160.201V10.3633ZM164.156 2.66797H162.506V0.0410156H165.855L168.473 2.62891V10.4121L165.855 13H162.506V10.3633H164.156V2.66797Z" fill="white"/>
<path d="M144.656 3.53711H149.148V13H144.656V3.53711ZM141.277 0.0410156H152.527V2.86328H141.277V0.0410156Z" fill="white"/>
<path d="M129.639 10.3633H131.26V13H127.939L125.312 10.4121V2.62891L127.939 0.0410156H131.26V2.66797H129.639V10.3633ZM133.594 2.66797H131.943V0.0410156H135.293L137.91 2.62891V10.4121L135.293 13H131.943V10.3633H133.594V2.66797Z" fill="white"/>
<path d="M109.104 13V0.0410156H113.42V13H109.104ZM114.104 2.62891V0.0410156H119.035L121.633 2.62891V6.51562L119.641 8.50781L119.504 8.23438L115.451 8.77148L115.607 9.11328H114.104V6.60352H117.346V2.62891H114.104ZM122.072 13H117.463L115.607 9.11328H119.035L119.641 8.50781L122.072 13Z" fill="white"/>
<path d="M92.8457 13V0.0410156H97.084V13H92.8457ZM97.7676 2.62891V0.0410156H102.611L105.199 2.62891V7.07227L102.611 9.66992H97.7676V7.07227H100.902V2.62891H97.7676Z" fill="white"/>
<path d="M65.6523 0.0410156H70.2422L73.7188 5.80273L76.4531 1.11523V7.63867L73.3379 13L65.6523 0.0410156ZM77.0879 13V0.0410156H81.4043V13H77.0879ZM65.6426 13V1.24219L69.6758 8.00977V13H65.6426Z" fill="white"/>
<path d="M57.5 11.584H53.2617L54.1602 9.01562H56.5039L53.0371 0.0410156H57.2461L62.4121 13H58.0469L57.5 11.584ZM52.1094 13H47.9395L52.5684 0.626953L54.4824 5.77344L52.1094 13Z" fill="white"/>
<path d="M37.4824 7.67773V13H33.166V0.0410156H37.4824V5.17773H41.6133V7.67773H37.4824ZM38.166 2.55078V0.0410156H44.9141V3.79102H40.8516V2.55078H38.166ZM38.166 13V10.4121H40.5977V9.11328H44.9141V13H38.166Z" fill="white"/>
<path d="M16.6543 13V0.0410156H20.9707V13H16.6543ZM21.6543 2.62891V0.0410156H26.5859L29.1836 2.62891V6.51562L27.1914 8.50781L27.0547 8.23438L23.002 8.77148L23.1582 9.11328H21.6543V6.60352H24.8965V2.62891H21.6543ZM29.623 13H25.0137L23.1582 9.11328H26.5859L27.1914 8.50781L29.623 13Z" fill="white"/>
<path d="M5.14258 13V10.4121H8.3457V2.62891H5.14258V0.0410156H10.0742L12.6719 2.62891V10.4121L10.0742 13H5.14258ZM0.142578 0.0410156H4.45898V13H0.142578V0.0410156Z" fill="white"/>
</svg>
