<svg width="24" height="24" viewBox="0 0 24 24" fill="none" xmlns="http://www.w3.org/2000/svg">
<path d="M19.9558 13.1378L19.1467 12.3463L12.3311 19.1532L13.1489 19.9711C13.8349 20.657 14.5473 21 15.2508 21C15.9544 21 16.6667 20.657 17.3527 19.9711L19.9558 17.3679C21.3541 15.9608 21.3541 14.5449 19.9558 13.1378Z" fill="white"/>
<path d="M10.8534 4.03554C9.4727 2.65482 8.02162 2.65482 6.64089 4.03554L4.02895 6.63869C2.65702 8.01942 2.65702 9.4705 4.02895 10.8512L4.83804 11.6603L11.6537 4.84463L10.8534 4.03554Z" fill="white"/>
<path opacity="0.4" d="M20.6325 4.92378C19.4805 7.79956 16.8509 11.5548 14.3445 14.0084C13.9839 11.7395 12.1723 9.96299 9.88574 9.64639C12.3482 7.13118 16.1298 4.46647 19.0144 3.3056C19.5244 3.11213 20.0345 3.26163 20.3511 3.57823C20.6853 3.91242 20.8436 4.4137 20.6325 4.92378Z" fill="white"/>
<path d="M14.3453 14.0084C13.9056 14.4394 13.4659 14.8351 13.0437 15.1693L11.3112 16.5588C11.0914 16.7171 10.8715 16.849 10.6253 16.9546C10.6253 16.7875 10.6077 16.6204 10.5901 16.4445C10.4934 15.7145 10.1592 15.0198 9.56995 14.4306C8.96313 13.8325 8.24199 13.4896 7.49446 13.3928C7.31857 13.3752 7.13389 13.3664 6.9668 13.3752C7.06354 13.1026 7.21304 12.8476 7.39772 12.6365L8.76965 10.904C9.09505 10.4907 9.47321 10.0685 9.88655 9.64639C12.1731 9.96299 13.9848 11.7395 14.3453 14.0084Z" fill="white"/>
<path opacity="0.4" d="M10.6245 16.9545C10.6245 17.9219 10.2552 18.8453 9.55162 19.5401C9.01516 20.0854 8.29402 20.4547 7.41457 20.5603L5.25994 20.7977C4.08148 20.9296 3.07012 19.9183 3.20204 18.731L3.43949 16.5676C3.65056 14.6416 5.25994 13.4104 6.96606 13.3752C7.13315 13.3664 7.31783 13.3752 7.49372 13.3928C8.24125 13.4895 8.96239 13.8325 9.56921 14.4305C10.1584 15.0198 10.4926 15.7145 10.5894 16.4445C10.6069 16.6204 10.6245 16.7875 10.6245 16.9545Z" fill="white"/>
</svg>
