<svg width="24" height="24" viewBox="0 0 24 24" fill="none" xmlns="http://www.w3.org/2000/svg">
<path opacity="0.4" d="M12 21C16.9706 21 21 16.9706 21 12C21 7.02944 16.9706 3 12 3C7.02944 3 3 7.02944 3 12C3 16.9706 7.02944 21 12 21Z" fill="white"/>
<path d="M12 7.43701C10.137 7.43701 8.625 8.94901 8.625 10.812C8.625 12.639 10.056 14.124 11.955 14.178C11.982 14.178 12.018 14.178 12.036 14.178C12.054 14.178 12.081 14.178 12.099 14.178C12.108 14.178 12.117 14.178 12.117 14.178C13.935 14.115 15.366 12.639 15.375 10.812C15.375 8.94901 13.863 7.43701 12 7.43701Z" fill="white"/>
<path d="M18.1024 18.615C16.5004 20.091 14.3584 21 12.0004 21C9.64244 21 7.50044 20.091 5.89844 18.615C6.11444 17.796 6.69944 17.049 7.55444 16.473C10.0114 14.835 14.0074 14.835 16.4464 16.473C17.3104 17.049 17.8864 17.796 18.1024 18.615Z" fill="white"/>
</svg>
