<svg width="24" height="24" viewBox="0 0 24 24" fill="none" xmlns="http://www.w3.org/2000/svg">
<path opacity="0.4" d="M8.08462 20.019C8.05762 20.019 8.02162 20.037 7.99462 20.037C6.24862 19.173 4.82661 17.742 3.95361 15.996C3.95361 15.969 3.97161 15.933 3.97161 15.906C5.06961 16.23 6.20362 16.473 7.32862 16.662C7.52662 17.796 7.76062 18.921 8.08462 20.019Z" fill="white"/>
<path opacity="0.4" d="M20.0463 16.005C19.1553 17.796 17.6703 19.245 15.8613 20.118C16.2033 18.975 16.4913 17.823 16.6803 16.662C17.8143 16.473 18.9303 16.23 20.0283 15.906C20.0193 15.942 20.0463 15.978 20.0463 16.005Z" fill="white"/>
<path opacity="0.4" d="M20.1183 8.13896C18.9843 7.79696 17.8413 7.51796 16.6803 7.31996C16.4913 6.15896 16.2123 5.00696 15.8613 3.88196C17.7243 4.77296 19.2273 6.27596 20.1183 8.13896Z" fill="white"/>
<path opacity="0.4" d="M8.08533 3.98098C7.76133 5.07898 7.52733 6.19498 7.33833 7.32898C6.17733 7.50898 5.02533 7.79698 3.88232 8.13899C4.75533 6.32998 6.20433 4.84498 7.99533 3.95398C8.02233 3.95398 8.05833 3.98098 8.08533 3.98098Z" fill="white"/>
<path d="M15.1404 7.13101C13.0524 6.89701 10.9464 6.89701 8.8584 7.13101C9.0834 5.898 9.3714 4.665 9.7764 3.477C9.7944 3.405 9.7854 3.351 9.7944 3.279C10.5054 3.108 11.2344 3 11.9994 3C12.7554 3 13.4934 3.108 14.1954 3.279C14.2044 3.351 14.2044 3.405 14.2224 3.477C14.6274 4.674 14.9154 5.898 15.1404 7.13101Z" fill="white"/>
<path d="M7.13101 15.141C5.889 14.916 4.665 14.628 3.477 14.223C3.405 14.205 3.351 14.214 3.279 14.205C3.108 13.494 3 12.765 3 12C3 11.244 3.108 10.506 3.279 9.80401C3.351 9.79501 3.405 9.79501 3.477 9.77701C4.674 9.38101 5.889 9.08401 7.13101 8.85901C6.90601 10.947 6.90601 13.053 7.13101 15.141Z" fill="white"/>
<path d="M21.0001 12C21.0001 12.765 20.8921 13.494 20.7211 14.205C20.6491 14.214 20.5951 14.205 20.5231 14.223C19.3261 14.619 18.1021 14.916 16.8691 15.141C17.1031 13.053 17.1031 10.947 16.8691 8.85901C18.1021 9.08401 19.3351 9.37201 20.5231 9.77701C20.5951 9.79501 20.6491 9.80401 20.7211 9.80401C20.8921 10.515 21.0001 11.244 21.0001 12Z" fill="white"/>
<path d="M15.1404 16.869C14.9154 18.111 14.6274 19.335 14.2224 20.523C14.2044 20.595 14.2044 20.649 14.1954 20.721C13.4934 20.892 12.7554 21 11.9994 21C11.2344 21 10.5054 20.892 9.7944 20.721C9.7854 20.649 9.7944 20.595 9.7764 20.523C9.3804 19.326 9.0834 18.111 8.8584 16.869C9.9024 16.986 10.9464 17.067 11.9994 17.067C13.0524 17.067 14.1054 16.986 15.1404 16.869Z" fill="white"/>
<path opacity="0.4" d="M15.3874 15.387C13.1364 15.671 10.8644 15.671 8.61339 15.387C8.32939 13.136 8.32939 10.864 8.61339 8.61303C10.8644 8.32902 13.1364 8.32902 15.3874 8.61303C15.6714 10.864 15.6714 13.136 15.3874 15.387Z" fill="white"/>
</svg>
