<svg width="32" height="32" viewBox="0 0 32 32" fill="none" xmlns="http://www.w3.org/2000/svg">
<rect width="32" height="32" rx="4" fill="white" fill-opacity="0.3"/>
<path opacity="0.4" d="M22.6776 19.2409L21.7676 17.7469C21.5764 17.4139 21.4035 16.7839 21.4035 16.4149V14.1379C21.4035 11.2039 18.9919 8.80994 16.016 8.80994C13.0401 8.80994 10.6285 11.2039 10.6285 14.1379V16.4149C10.6285 16.7839 10.4555 17.4139 10.2644 17.7379L9.34527 19.2409C8.98125 19.8439 8.89934 20.5099 9.12686 21.1219C9.34527 21.7249 9.864 22.1929 10.5374 22.4179C12.303 23.0119 14.1595 23.2999 16.016 23.2999C17.8725 23.2999 19.729 23.0119 21.4945 22.4269C22.1316 22.2199 22.623 21.7429 22.8596 21.1219C23.0962 20.5009 23.0325 19.8169 22.6776 19.2409Z" fill="white"/>
<path d="M18.0458 9.188C17.4179 8.945 16.7354 8.81 16.0164 8.81C15.3066 8.81 14.624 8.936 13.9961 9.188C14.3874 8.459 15.161 8 16.0164 8C16.881 8 17.6454 8.459 18.0458 9.188Z" fill="white"/>
<path d="M18.5725 24.209C18.1903 25.253 17.1801 26 15.997 26C15.2781 26 14.5682 25.712 14.0677 25.199C13.7765 24.929 13.5581 24.569 13.4307 24.2C13.549 24.218 13.6673 24.227 13.7947 24.245C14.004 24.272 14.2224 24.299 14.4408 24.317C14.9596 24.362 15.4874 24.389 16.0152 24.389C16.534 24.389 17.0527 24.362 17.5623 24.317C17.7534 24.299 17.9445 24.29 18.1266 24.263C18.2722 24.245 18.4178 24.227 18.5725 24.209Z" fill="white"/>
<path opacity="0.4" d="M22.6776 19.2409L21.7676 17.7469C21.5764 17.4139 21.4035 16.7839 21.4035 16.4149V14.1379C21.4035 11.2039 18.9919 8.80994 16.016 8.80994C13.0401 8.80994 10.6285 11.2039 10.6285 14.1379V16.4149C10.6285 16.7839 10.4555 17.4139 10.2644 17.7379L9.34527 19.2409C8.98125 19.8439 8.89934 20.5099 9.12686 21.1219C9.34527 21.7249 9.864 22.1929 10.5374 22.4179C12.303 23.0119 14.1595 23.2999 16.016 23.2999C17.8725 23.2999 19.729 23.0119 21.4945 22.4269C22.1316 22.2199 22.623 21.7429 22.8596 21.1219C23.0962 20.5009 23.0325 19.8169 22.6776 19.2409Z" fill="white"/>
<path d="M18.0458 9.188C17.4179 8.945 16.7354 8.81 16.0164 8.81C15.3066 8.81 14.624 8.936 13.9961 9.188C14.3874 8.459 15.161 8 16.0164 8C16.881 8 17.6454 8.459 18.0458 9.188Z" fill="white"/>
<path d="M18.5725 24.209C18.1903 25.253 17.1801 26 15.997 26C15.2781 26 14.5682 25.712 14.0677 25.199C13.7765 24.929 13.5581 24.569 13.4307 24.2C13.549 24.218 13.6673 24.227 13.7947 24.245C14.004 24.272 14.2224 24.299 14.4408 24.317C14.9596 24.362 15.4874 24.389 16.0152 24.389C16.534 24.389 17.0527 24.362 17.5623 24.317C17.7534 24.299 17.9445 24.29 18.1266 24.263C18.2722 24.245 18.4178 24.227 18.5725 24.209Z" fill="white"/>
<circle cx="20" cy="11" r="3" fill="#EA4335"/>
</svg>
