<svg width="24" height="24" viewBox="0 0 24 24" fill="none" xmlns="http://www.w3.org/2000/svg">
<rect width="24" height="24" rx="4" fill="white" fill-opacity="0.3"/>
<path opacity="0.4" d="M17.7237 13.992L16.9436 12.664C16.7798 12.368 16.6316 11.808 16.6316 11.48V9.45597C16.6316 6.84797 14.5645 4.71997 12.0137 4.71997C9.46295 4.71997 7.39582 6.84797 7.39582 9.45597V11.48C7.39582 11.808 7.24761 12.368 7.0838 12.656L6.29595 13.992C5.98393 14.528 5.91372 15.12 6.10874 15.664C6.29595 16.2 6.74058 16.616 7.31781 16.816C8.83111 17.344 10.4224 17.6 12.0137 17.6C13.605 17.6 15.1963 17.344 16.7096 16.824C17.2556 16.64 17.6769 16.216 17.8797 15.664C18.0825 15.112 18.0279 14.504 17.7237 13.992Z" fill="white"/>
<path d="M13.7536 5.056C13.2153 4.84 12.6303 4.72 12.0141 4.72C11.4056 4.72 10.8206 4.832 10.2823 5.056C10.6178 4.408 11.2808 4 12.0141 4C12.7551 4 13.4103 4.408 13.7536 5.056Z" fill="white"/>
<path d="M14.2051 18.4079C13.8775 19.3359 13.0117 19.9999 11.9976 19.9999C11.3814 19.9999 10.7729 19.7439 10.3439 19.2879C10.0943 19.0479 9.90706 18.7279 9.79785 18.3999C9.89926 18.4159 10.0007 18.4239 10.1099 18.4399C10.2893 18.4639 10.4765 18.4879 10.6637 18.5039C11.1083 18.5439 11.5608 18.5679 12.0132 18.5679C12.4578 18.5679 12.9024 18.5439 13.3393 18.5039C13.5031 18.4879 13.6669 18.4799 13.8229 18.4559C13.9477 18.4399 14.0725 18.4239 14.2051 18.4079Z" fill="white"/>
<path opacity="0.4" d="M17.7237 13.992L16.9436 12.664C16.7798 12.368 16.6316 11.808 16.6316 11.48V9.45597C16.6316 6.84797 14.5645 4.71997 12.0137 4.71997C9.46295 4.71997 7.39582 6.84797 7.39582 9.45597V11.48C7.39582 11.808 7.24761 12.368 7.0838 12.656L6.29595 13.992C5.98393 14.528 5.91372 15.12 6.10874 15.664C6.29595 16.2 6.74058 16.616 7.31781 16.816C8.83111 17.344 10.4224 17.6 12.0137 17.6C13.605 17.6 15.1963 17.344 16.7096 16.824C17.2556 16.64 17.6769 16.216 17.8797 15.664C18.0825 15.112 18.0279 14.504 17.7237 13.992Z" fill="white"/>
<path d="M13.7536 5.056C13.2153 4.84 12.6303 4.72 12.0141 4.72C11.4056 4.72 10.8206 4.832 10.2823 5.056C10.6178 4.408 11.2808 4 12.0141 4C12.7551 4 13.4103 4.408 13.7536 5.056Z" fill="white"/>
<path d="M14.2051 18.4079C13.8775 19.3359 13.0117 19.9999 11.9976 19.9999C11.3814 19.9999 10.7729 19.7439 10.3439 19.2879C10.0943 19.0479 9.90706 18.7279 9.79785 18.3999C9.89926 18.4159 10.0007 18.4239 10.1099 18.4399C10.2893 18.4639 10.4765 18.4879 10.6637 18.5039C11.1083 18.5439 11.5608 18.5679 12.0132 18.5679C12.4578 18.5679 12.9024 18.5439 13.3393 18.5039C13.5031 18.4879 13.6669 18.4799 13.8229 18.4559C13.9477 18.4399 14.0725 18.4239 14.2051 18.4079Z" fill="white"/>
<circle cx="17" cy="7" r="3" fill="#EA4335"/>
</svg>
