<svg width="24" height="24" viewBox="0 0 24 24" fill="none" xmlns="http://www.w3.org/2000/svg">
<path d="M24 12.2729C24 11.422 23.9221 10.6038 23.7774 9.81836H12.2449V14.4656H18.8349C18.5454 15.9602 17.6772 17.2256 16.3747 18.0766V21.0984H20.3488C22.6642 19.0038 24 15.9275 24 12.2729Z" fill="#4285F4"/>
<path d="M12.245 24.0001C15.5511 24.0001 18.3229 22.931 20.3489 21.0983L16.3748 18.0765C15.2839 18.7965 13.8925 19.2328 12.245 19.2328C9.06129 19.2328 6.35628 17.1274 5.38781 14.291H1.3136V17.3892C3.32844 21.3056 7.45832 24.0001 12.245 24.0001Z" fill="#34A853"/>
<path d="M5.38776 14.2803C5.14286 13.5603 4.99815 12.7966 4.99815 12.0003C4.99815 11.2039 5.14286 10.4403 5.38776 9.72026V6.62207H1.31355C0.478665 8.23662 0 10.0584 0 12.0003C0 13.9421 0.478665 15.7639 1.31355 17.3784L4.48609 14.9566L5.38776 14.2803Z" fill="#FBBC05"/>
<path d="M12.245 4.77819C14.0483 4.77819 15.6513 5.3891 16.9314 6.56728L20.4379 3.13091C18.3118 1.18909 15.5511 0 12.245 0C7.45832 0 3.32844 2.69455 1.3136 6.62183L5.38781 9.72001C6.35628 6.88364 9.06129 4.77819 12.245 4.77819Z" fill="#EA4335"/>
</svg>
