<svg width="24" height="24" viewBox="0 0 24 24" fill="none" xmlns="http://www.w3.org/2000/svg">
<rect width="24" height="24" rx="4" fill="#EA4335"/>
<path opacity="0.4" d="M9.60059 8.16V15.832C9.60059 18.4 11.2015 20 13.7631 20H15.8363C18.3978 20 19.9988 18.4 19.9988 15.84V8.16C20.0068 5.6 18.4058 4 15.8443 4H13.7631C11.2015 4 9.60059 5.6 9.60059 8.16Z" fill="white"/>
<path d="M6.8557 8.89606L4.1741 11.5761C3.94197 11.8081 3.94197 12.1921 4.1741 12.4241L6.8557 15.1041C7.08784 15.3361 7.47207 15.3361 7.70421 15.1041C7.93635 14.8721 7.93635 14.4881 7.70421 14.2561L6.04722 12.6001H14.6043C14.9325 12.6001 15.2047 12.3281 15.2047 12.0001C15.2047 11.6721 14.9325 11.4001 14.6043 11.4001H6.04722L7.70421 9.74406C7.82428 9.62406 7.88031 9.47206 7.88031 9.32006C7.88031 9.16806 7.82428 9.00806 7.70421 8.89606C7.47207 8.65606 7.09584 8.65606 6.8557 8.89606Z" fill="white"/>
</svg>
