<svg width="16" height="16" viewBox="0 0 16 16" fill="none" xmlns="http://www.w3.org/2000/svg">
<path opacity="0.4" d="M8 16C12.4183 16 16 12.4183 16 8C16 3.58172 12.4183 0 8 0C3.58172 0 0 3.58172 0 8C0 12.4183 3.58172 16 8 16Z" fill="white"/>
<path d="M7.9998 14.2C4.5838 14.2 1.7998 11.416 1.7998 8.00005C1.7998 7.67205 2.0718 7.40005 2.3998 7.40005C2.7278 7.40005 2.9998 7.67205 2.9998 8.00005C2.9998 10.76 5.2398 13 7.9998 13C10.7598 13 12.9998 10.76 12.9998 8.00005C12.9998 5.24005 10.7598 3.00005 7.9998 3.00005C7.6718 3.00005 7.3998 2.72805 7.3998 2.40005C7.3998 2.07205 7.6718 1.80005 7.9998 1.80005C11.4158 1.80005 14.1998 4.58405 14.1998 8.00005C14.1998 11.416 11.4158 14.2 7.9998 14.2Z" fill="white"/>
<path d="M7.9999 11.8C7.6719 11.8 7.3999 11.528 7.3999 11.2C7.3999 10.872 7.6719 10.6 7.9999 10.6C9.4319 10.6 10.5999 9.43195 10.5999 7.99995C10.5999 6.56795 9.4319 5.39995 7.9999 5.39995C7.6719 5.39995 7.3999 5.12795 7.3999 4.79995C7.3999 4.47195 7.6719 4.19995 7.9999 4.19995C10.0959 4.19995 11.7999 5.90395 11.7999 7.99995C11.7999 10.096 10.0959 11.8 7.9999 11.8Z" fill="white"/>
</svg>
