<svg width="24" height="24" viewBox="0 0 24 24" fill="none" xmlns="http://www.w3.org/2000/svg">
<path d="M20.9304 5.02326H14.2327C13.775 5.02326 13.3955 4.64372 13.3955 4.18605C13.3955 3.72837 13.775 3.34884 14.2327 3.34884H20.9304C21.3881 3.34884 21.7676 3.72837 21.7676 4.18605C21.7676 4.64372 21.3881 5.02326 20.9304 5.02326Z" fill="white"/>
<path d="M17.5816 8.37209H14.2327C13.775 8.37209 13.3955 7.99256 13.3955 7.53488C13.3955 7.07721 13.775 6.69767 14.2327 6.69767H17.5816C18.0392 6.69767 18.4188 7.07721 18.4188 7.53488C18.4188 7.99256 18.0392 8.37209 17.5816 8.37209Z" fill="white"/>
<path d="M11.4419 22.8837C5.13488 22.8837 0 17.7488 0 11.4419C0 5.13488 5.13488 0 11.4419 0C11.8995 0 12.2791 0.379535 12.2791 0.837209C12.2791 1.29488 11.8995 1.67442 11.4419 1.67442C6.05023 1.67442 1.67442 6.06139 1.67442 11.4419C1.67442 16.8223 6.05023 21.2093 11.4419 21.2093C16.8335 21.2093 21.2093 16.8223 21.2093 11.4419C21.2093 10.9842 21.5888 10.6046 22.0465 10.6046C22.5042 10.6046 22.8837 10.9842 22.8837 11.4419C22.8837 17.7488 17.7488 22.8837 11.4419 22.8837Z" fill="white"/>
<path d="M23.1627 24C22.9506 24 22.7385 23.9219 22.5711 23.7544L20.3385 21.5219C20.0148 21.1981 20.0148 20.6623 20.3385 20.3386C20.6622 20.0149 21.198 20.0149 21.5218 20.3386L23.7543 22.5712C24.078 22.8949 24.078 23.4307 23.7543 23.7544C23.5869 23.9219 23.3748 24 23.1627 24Z" fill="white"/>
</svg>
