<svg width="40" height="40" viewBox="0 0 40 40" fill="none" xmlns="http://www.w3.org/2000/svg">
<path opacity="0.4" d="M40 11.62V28.38C40 35.66 35.66 40 28.38 40H11.62C11.22 40 10.82 39.98 10.44 39.96C7.98 39.8 5.9 39.1 4.26 37.9C3.42 37.32 2.68 36.58 2.1 35.74C0.72 33.84 0 31.36 0 28.38V11.62C0 4.74 3.88 0.48 10.44 0.0599999C10.82 0.0199999 11.22 0 11.62 0H28.38C31.36 0 33.84 0.72 35.74 2.1C36.58 2.68 37.32 3.42 37.9 4.26C39.28 6.16 40 8.64 40 11.62Z" fill="white"/>
<path d="M32 17.5C32.82 17.5 33.5 16.82 33.5 16V8C33.5 7.8 33.46 7.62 33.38 7.42C33.22 7.06 32.94 6.76 32.56 6.6C32.38 6.54 32.2 6.5 32 6.5H24C23.18 6.5 22.5 7.18 22.5 8C22.5 8.82 23.18 9.5 24 9.5H28.38L20 17.88L11.62 9.5H16C16.82 9.5 17.5 8.82 17.5 8C17.5 7.18 16.82 6.5 16 6.5H8C7.8 6.5 7.62 6.54 7.42 6.62C7.06 6.76 6.76 7.06 6.62 7.42C6.54 7.62 6.5 7.8 6.5 8V16C6.5 16.82 7.18 17.5 8 17.5C8.82 17.5 9.5 16.82 9.5 16V11.62L17.88 20L9.5 28.38V24C9.5 23.18 8.82 22.5 8 22.5C7.18 22.5 6.5 23.18 6.5 24V32C6.5 32.2 6.54 32.38 6.62 32.58C6.78 32.94 7.06 33.24 7.44 33.4C7.6 33.46 7.8 33.5 8 33.5H16C16.82 33.5 17.5 32.82 17.5 32C17.5 31.18 16.82 30.5 16 30.5H11.62L20 22.12L28.38 30.5H24C23.18 30.5 22.5 31.18 22.5 32C22.5 32.82 23.18 33.5 24 33.5H32C32.2 33.5 32.4 33.46 32.58 33.38C32.94 33.22 33.24 32.94 33.4 32.56C33.48 32.38 33.52 32.18 33.52 31.98V23.98C33.52 23.16 32.84 22.48 32.02 22.48C31.2 22.48 30.52 23.16 30.52 23.98V28.36L22.12 20L30.5 11.62V16C30.5 16.82 31.18 17.5 32 17.5Z" fill="white"/>
</svg>
