<svg width="14" height="16" viewBox="0 0 14 16" fill="none" xmlns="http://www.w3.org/2000/svg">
<path d="M10.6946 1.78123V0.578321C10.6946 0.262172 10.4302 0 10.1113 0C9.79241 0 9.52796 0.262172 9.52796 0.578321V1.73496H4.47241V0.578321C4.47241 0.262172 4.20796 0 3.88907 0C3.57019 0 3.30574 0.262172 3.30574 0.578321V1.78123C1.20574 1.974 0.186858 3.21546 0.0313029 5.05838C0.0157474 5.282 0.202414 5.46706 0.420192 5.46706H13.5802C13.8057 5.46706 13.9924 5.27429 13.9691 5.05838C13.8135 3.21546 12.7946 1.974 10.6946 1.78123Z" fill="white"/>
<path opacity="0.4" d="M13.2222 6.62354C13.65 6.62354 14 6.97053 14 7.39463V12.1446C14 14.4579 12.8333 16.0001 10.1111 16.0001H3.88889C1.16667 16.0001 0 14.4579 0 12.1446V7.39463C0 6.97053 0.35 6.62354 0.777778 6.62354H13.2222Z" fill="white"/>
<path d="M7.00007 10.6027C6.89896 10.6027 6.79784 10.5796 6.70451 10.541C6.61118 10.5025 6.52563 10.4485 6.44785 10.3791C6.30785 10.2326 6.22229 10.0321 6.22229 9.83163C6.22229 9.63114 6.30785 9.43066 6.44785 9.28416C6.52563 9.21476 6.61118 9.16076 6.70451 9.12221C6.89118 9.03739 7.10896 9.03739 7.29563 9.12221C7.38896 9.16076 7.47451 9.21476 7.55228 9.28416C7.69228 9.43066 7.77785 9.63114 7.77785 9.83163C7.77785 10.0321 7.69228 10.2326 7.55228 10.3791C7.47451 10.4485 7.38896 10.5025 7.29563 10.541C7.20229 10.5796 7.10118 10.6027 7.00007 10.6027Z" fill="white"/>
<path d="M4.2779 10.6026C4.17679 10.6026 4.07567 10.5794 3.98234 10.5409C3.88901 10.5023 3.80346 10.4483 3.72568 10.3789C3.65568 10.3018 3.60122 10.217 3.56233 10.1245C3.52344 10.0319 3.50012 9.9317 3.50012 9.83146C3.50012 9.73122 3.52344 9.63097 3.56233 9.53844C3.60122 9.44591 3.65568 9.3611 3.72568 9.28399C3.80346 9.21459 3.88901 9.1606 3.98234 9.12204C4.16901 9.04493 4.38679 9.04493 4.57346 9.12204C4.66679 9.1606 4.75234 9.21459 4.83012 9.28399C4.90012 9.3611 4.95458 9.44591 4.99347 9.53844C5.03235 9.63097 5.05568 9.73122 5.05568 9.83146C5.05568 9.9317 5.03235 10.0319 4.99347 10.1245C4.95458 10.217 4.90012 10.3018 4.83012 10.3789C4.75234 10.4483 4.66679 10.5023 4.57346 10.5409C4.48013 10.5794 4.37901 10.6026 4.2779 10.6026Z" fill="white"/>
<path d="M4.2779 13.3013C4.17679 13.3013 4.07567 13.2782 3.98234 13.2396C3.88901 13.2011 3.80346 13.1471 3.72568 13.0777C3.58568 12.9312 3.50012 12.7307 3.50012 12.5302C3.50012 12.3297 3.58568 12.1292 3.72568 11.9827C3.80346 11.9133 3.88901 11.8593 3.98234 11.8208C4.16901 11.7437 4.38679 11.7437 4.57346 11.8208C4.66679 11.8593 4.75234 11.9133 4.83012 11.9827C4.97012 12.1292 5.05568 12.3297 5.05568 12.5302C5.05568 12.7307 4.97012 12.9312 4.83012 13.0777C4.75234 13.1471 4.66679 13.2011 4.57346 13.2396C4.48013 13.2782 4.37901 13.3013 4.2779 13.3013Z" fill="white"/>
</svg>
