<svg width="40" height="40" viewBox="0 0 40 40" fill="none" xmlns="http://www.w3.org/2000/svg">
<path d="M38.0949 24.5715V28.9334C38.0949 35.8667 33.9616 40 27.0282 40H11.0664C6.20925 40 2.7045 37.9619 1.06641 34.3429L1.27593 34.1905L10.6473 27.9048C12.1711 26.8762 14.3235 26.9905 15.6759 28.1715L16.3235 28.7048C17.8092 29.981 20.2092 29.981 21.6949 28.7048L29.6187 21.9048C31.1044 20.6286 33.5044 20.6286 34.9901 21.9048L38.0949 24.5715Z" fill="white"/>
<path opacity="0.4" d="M36.1332 13.3333H30.5332C28.1142 13.3333 26.6666 11.8857 26.6666 9.46664V3.86665C26.6666 3.10475 26.819 2.45713 27.0856 1.90475C27.0666 1.90475 27.0475 1.90475 27.0285 1.90475H11.0666C4.13332 1.90475 0 6.03808 0 12.9714V28.9333C0 31.0094 0.361904 32.819 1.06666 34.3428L1.27619 34.1904L10.6476 27.9047C12.1714 26.8761 14.3238 26.9904 15.6761 28.1713L16.3238 28.7047C17.8095 29.9809 20.2095 29.9809 21.6952 28.7047L29.619 21.9047C31.1047 20.6285 33.5047 20.6285 34.9904 21.9047L38.0951 24.5714V12.9714C38.0951 12.9523 38.0951 12.9333 38.0951 12.9142C37.5428 13.1809 36.8951 13.3333 36.1332 13.3333Z" fill="white"/>
<path d="M13.3341 17.8668C15.8378 17.8668 17.8674 15.8372 17.8674 13.3335C17.8674 10.8298 15.8378 8.8002 13.3341 8.8002C10.8304 8.8002 8.80078 10.8298 8.80078 13.3335C8.80078 15.8372 10.8304 17.8668 13.3341 17.8668Z" fill="white"/>
<path d="M36.1327 0H30.5327C28.1136 0 26.666 1.44762 26.666 3.86666V9.46664C26.666 11.8857 28.1136 13.3333 30.5327 13.3333H36.1327C38.5517 13.3333 39.9993 11.8857 39.9993 9.46664V3.86666C39.9993 1.44762 38.5517 0 36.1327 0ZM37.9231 7.48569C37.7327 7.67617 37.4469 7.8095 37.1422 7.82855H34.4565L34.4755 10.4762C34.4565 10.8 34.3422 11.0666 34.1136 11.2952C33.9231 11.4857 33.6374 11.619 33.3327 11.619C32.7041 11.619 32.1898 11.1047 32.1898 10.4762V7.8095L29.5232 7.82855C28.8946 7.82855 28.3803 7.29522 28.3803 6.66665C28.3803 6.03808 28.8946 5.52379 29.5232 5.52379L32.1898 5.54284V2.87618C32.1898 2.24761 32.7041 1.71428 33.3327 1.71428C33.9612 1.71428 34.4755 2.24761 34.4755 2.87618L34.4565 5.52379H37.1422C37.7707 5.52379 38.285 6.03808 38.285 6.66665C38.266 6.99046 38.1327 7.25712 37.9231 7.48569Z" fill="white"/>
</svg>
