<svg width="40" height="40" viewBox="0 0 40 40" fill="none" xmlns="http://www.w3.org/2000/svg">
<path opacity="0.4" d="M28.3941 0H11.6258C4.34216 0 0 4.34 0 11.62V28.36C0 35.66 4.34216 40 11.6258 40H28.3741C35.6578 40 39.9999 35.66 39.9999 28.38V11.62C40.0199 4.34 35.6778 0 28.3941 0Z" fill="white"/>
<path d="M9.76367 33.8002C8.94367 33.8002 8.26367 33.1202 8.26367 32.3002V28.1602C8.26367 27.3402 8.94367 26.6602 9.76367 26.6602C10.5837 26.6602 11.2637 27.3402 11.2637 28.1602V32.3002C11.2637 33.1402 10.5837 33.8002 9.76367 33.8002Z" fill="white"/>
<path d="M20.0098 33.8C19.1898 33.8 18.5098 33.12 18.5098 32.3V24C18.5098 23.18 19.1898 22.5 20.0098 22.5C20.8298 22.5 21.5098 23.18 21.5098 24V32.3C21.5098 33.14 20.8298 33.8 20.0098 33.8Z" fill="white"/>
<path d="M30.2539 33.8004C29.4339 33.8004 28.7539 33.1203 28.7539 32.3004V19.8604C28.7539 19.0404 29.4339 18.3604 30.2539 18.3604C31.0739 18.3604 31.7539 19.0404 31.7539 19.8604V32.3004C31.7539 33.1404 31.0939 33.8004 30.2539 33.8004Z" fill="white"/>
<path d="M31.7556 7.6402C31.7556 7.5402 31.7156 7.4202 31.6955 7.3202C31.6755 7.2402 31.6555 7.1402 31.6355 7.0602C31.5955 6.9802 31.5355 6.9202 31.4954 6.8402C31.4354 6.7602 31.3754 6.6602 31.2953 6.6002C31.2753 6.5802 31.2753 6.5602 31.2553 6.5602C31.1953 6.5202 31.1353 6.5002 31.0752 6.4602C30.9952 6.4002 30.8951 6.3402 30.7951 6.3002C30.695 6.2602 30.595 6.2602 30.4949 6.2402C30.4149 6.2202 30.3549 6.2002 30.2748 6.2002H24.4119C23.5915 6.2002 22.9112 6.8802 22.9112 7.7002C22.9112 8.5202 23.5915 9.2002 24.4119 9.2002H26.9132C22.1508 14.2002 16.1478 17.7202 9.40444 19.4202C8.60404 19.6202 8.10379 20.4402 8.30389 21.2402C8.46397 21.9202 9.08428 22.3802 9.76462 22.3802C9.88468 22.3802 10.0047 22.3602 10.1248 22.3402C17.2684 20.5602 23.6515 16.8602 28.7541 11.6202V13.5602C28.7541 14.3802 29.4344 15.0602 30.2548 15.0602C31.0752 15.0602 31.7556 14.3802 31.7556 13.5602V7.7002C31.7556 7.6802 31.7556 7.6602 31.7556 7.6402Z" fill="white"/>
</svg>
