<svg width="24" height="24" viewBox="0 0 24 24" fill="none" xmlns="http://www.w3.org/2000/svg">
<path opacity="0.4" d="M20.6896 10.188C20.3385 9.66963 19.7173 9.37341 19.0061 9.37341H15.3152C15.0721 9.37341 14.8471 9.27159 14.694 9.08645C14.532 8.90131 14.469 8.64212 14.505 8.37367L14.9641 5.33743C15.1621 4.43026 14.577 3.41201 13.6948 3.10653C12.8755 2.7918 11.9123 3.21761 11.5252 3.81931L7.72619 9.62335L7.61816 9.80848V17.9915L7.7532 18.1304L10.6069 20.3983C10.985 20.7871 11.8403 21 12.4434 21H15.9543C17.1607 21 18.376 20.0651 18.646 18.9265L20.8606 11.9931C21.0947 11.3359 21.0317 10.6971 20.6896 10.188Z" fill="white"/>
<path d="M5.88976 6.80933H4.96251C3.56715 6.80933 3 7.36474 3 8.73475V18.0471C3 19.4171 3.56715 19.9726 4.96251 19.9726H5.88976C7.28512 19.9726 7.85227 19.4171 7.85227 18.0471V8.73475C7.85227 7.36474 7.28512 6.80933 5.88976 6.80933Z" fill="white"/>
</svg>
