<svg width="40" height="40" viewBox="0 0 40 40" fill="none" xmlns="http://www.w3.org/2000/svg">
<path opacity="0.4" d="M32.3473 37H30.2898V36.5C30.2898 34.3 28.438 32.5 26.1746 32.5H21.5451V27.92C21.0307 27.98 20.5163 28 20.0019 28C19.4875 28 18.9731 27.98 18.4587 27.92V32.5H13.8292C11.5659 32.5 9.71404 34.3 9.71404 36.5V37H7.65646C6.81286 37 6.11328 37.68 6.11328 38.5C6.11328 39.32 6.81286 40 7.65646 40H32.3473C33.1909 40 33.8905 39.32 33.8905 38.5C33.8905 37.68 33.1909 37 32.3473 37Z" fill="white"/>
<path opacity="0.4" d="M6.66626 19.2798C5.30832 18.7798 4.11497 17.9598 3.16853 17.0398C1.25507 14.9798 0 12.5198 0 9.63981C0 6.75981 2.32496 4.49982 5.28774 4.49982H6.43993C5.90499 5.55982 5.59636 6.73981 5.59636 7.99981V13.9998C5.59636 15.8798 5.96671 17.6598 6.66626 19.2798Z" fill="white"/>
<path opacity="0.4" d="M40.0002 9.63981C40.0002 12.5198 38.7452 14.9798 36.8317 17.0398C35.8853 17.9598 34.6919 18.7798 33.334 19.2798C34.0335 17.6598 34.4039 15.8798 34.4039 13.9998V7.99981C34.4039 6.73981 34.0953 5.55982 33.5603 4.49982H34.7125C37.6753 4.49982 40.0002 6.75981 40.0002 9.63981Z" fill="white"/>
<path d="M26.1753 0H13.8299C9.28267 0 5.59961 3.58 5.59961 7.99999V14C5.59961 21.74 12.0398 28 20.0026 28C27.9654 28 34.4056 21.74 34.4056 14V7.99999C34.4056 3.58 30.7226 0 26.1753 0ZM25.8461 12.9L24.5704 14.42C24.3647 14.64 24.2206 15.08 24.2412 15.38L24.3647 17.34C24.447 18.54 23.5622 19.16 22.41 18.72L20.5376 18C20.2495 17.9 19.7557 17.9 19.4677 18L17.5953 18.72C16.443 19.16 15.5583 18.54 15.6406 17.34L15.764 15.38C15.7846 15.08 15.6406 14.64 15.4348 14.42L14.1591 12.9C13.3567 11.98 13.7064 10.96 14.8998 10.66L16.8545 10.18C17.1632 10.1 17.5335 9.81999 17.6981 9.55999L18.7887 7.91999C19.4677 6.89999 20.5376 6.89999 21.2166 7.91999L22.3071 9.55999C22.4717 9.81999 22.8421 10.1 23.1507 10.18L25.1054 10.66C26.2988 10.96 26.6486 11.98 25.8461 12.9Z" fill="white"/>
<path opacity="0.4" d="M25.8448 12.8998L24.5691 14.4198C24.3634 14.6398 24.2193 15.0798 24.2399 15.3798L24.3634 17.3398C24.4457 18.5398 23.5609 19.1598 22.4087 18.7198L20.5363 17.9998C20.2482 17.8998 19.7544 17.8998 19.4663 17.9998L17.5939 18.7198C16.4417 19.1598 15.5569 18.5398 15.6392 17.3398L15.7627 15.3798C15.7833 15.0798 15.6392 14.6398 15.4335 14.4198L14.1578 12.8998C13.3553 11.9798 13.7051 10.9598 14.8985 10.6598L16.8532 10.1798C17.1618 10.0998 17.5322 9.81984 17.6968 9.55984L18.7873 7.91985C19.4663 6.89985 20.5363 6.89985 21.2153 7.91985L22.3058 9.55984C22.4704 9.81984 22.8407 10.0998 23.1494 10.1798L25.1041 10.6598C26.2975 10.9598 26.6473 11.9798 25.8448 12.8998Z" fill="white"/>
</svg>
