<svg width="16" height="16" viewBox="0 0 16 16" fill="none" xmlns="http://www.w3.org/2000/svg">
<path opacity="0.4" d="M11.3577 0H4.65032C1.73687 0 0 1.736 0 4.648V11.344C0 14.264 1.73687 16 4.65032 16H11.3497C14.2631 16 16 14.264 16 11.352V4.648C16.008 1.736 14.2711 0 11.3577 0Z" fill="white"/>
<path d="M3.90542 13.5201C3.57742 13.5201 3.30542 13.2481 3.30542 12.9201V11.2641C3.30542 10.9361 3.57742 10.6641 3.90542 10.6641C4.23342 10.6641 4.50542 10.9361 4.50542 11.2641V12.9201C4.50542 13.2561 4.23342 13.5201 3.90542 13.5201Z" fill="white"/>
<path d="M8.00393 13.52C7.67593 13.52 7.40393 13.248 7.40393 12.92V9.6C7.40393 9.272 7.67593 9 8.00393 9C8.33193 9 8.60393 9.272 8.60393 9.6V12.92C8.60393 13.256 8.33193 13.52 8.00393 13.52Z" fill="white"/>
<path d="M12.1016 13.5202C11.7736 13.5202 11.5016 13.2482 11.5016 12.9202V7.94424C11.5016 7.61624 11.7736 7.34424 12.1016 7.34424C12.4296 7.34424 12.7016 7.61624 12.7016 7.94424V12.9202C12.7016 13.2562 12.4376 13.5202 12.1016 13.5202Z" fill="white"/>
<path d="M12.7023 3.05598C12.7023 3.01598 12.6863 2.96798 12.6783 2.92798C12.6703 2.89598 12.6623 2.85598 12.6543 2.82398C12.6382 2.79198 12.6142 2.76798 12.5982 2.73598C12.5742 2.70398 12.5502 2.66398 12.5182 2.63998C12.5102 2.63198 12.5102 2.62398 12.5022 2.62398C12.4782 2.60798 12.4542 2.59998 12.4301 2.58398C12.3981 2.55998 12.3581 2.53598 12.3181 2.51998C12.2781 2.50398 12.238 2.50398 12.198 2.49598C12.166 2.48798 12.142 2.47998 12.11 2.47998H9.76481C9.43665 2.47998 9.16452 2.75198 9.16452 3.07998C9.16452 3.40798 9.43665 3.67998 9.76481 3.67998H10.7653C8.86036 5.67998 6.45917 7.08798 3.76182 7.76798C3.44166 7.84798 3.24156 8.17598 3.3216 8.49598C3.38564 8.76798 3.63376 8.95198 3.9059 8.95198C3.95392 8.95198 4.00194 8.94398 4.04997 8.93598C6.90739 8.22398 9.46066 6.74398 11.5017 4.64798V5.42398C11.5017 5.75198 11.7738 6.02398 12.102 6.02398C12.4301 6.02398 12.7023 5.75198 12.7023 5.42398V3.07998C12.7023 3.07198 12.7023 3.06398 12.7023 3.05598Z" fill="white"/>
</svg>
