<svg width="40" height="40" viewBox="0 0 40 40" fill="none" xmlns="http://www.w3.org/2000/svg">
<path opacity="0.4" d="M39.3074 15.9734C38.5272 14.8214 37.1468 14.1631 35.5664 14.1631H27.3642C26.8241 14.1631 26.324 13.9369 25.9839 13.5254C25.6238 13.114 25.4837 12.538 25.5638 11.9415L26.584 5.19428C27.0242 3.17835 25.7238 0.915569 23.7633 0.236734C21.9428 -0.462672 19.8023 0.483583 18.942 1.82068L10.4998 14.7185L10.2598 15.13V33.3145L10.5598 33.6231L16.9015 38.6629C17.7417 39.5269 19.6422 40 20.9826 40H28.7846C31.4653 40 34.166 37.9224 34.7662 35.3922L39.6875 19.9847C40.2076 18.5241 40.0676 17.1048 39.3074 15.9734Z" fill="white"/>
<path d="M6.42168 8.46503H4.36114C1.26033 8.46503 0 9.69928 0 12.7438V33.4379C0 36.4824 1.26033 37.7166 4.36114 37.7166H6.42168C9.52249 37.7166 10.7828 36.4824 10.7828 33.4379V12.7438C10.7828 9.69928 9.52249 8.46503 6.42168 8.46503Z" fill="white"/>
</svg>
