<svg width="18" height="18" viewBox="0 0 18 18" fill="none" xmlns="http://www.w3.org/2000/svg">
<path d="M16.2619 0H13.742C12.6534 0 12.002 0.651428 12.002 1.74V4.26C12.002 5.34857 12.6534 6 13.742 6H16.2619C17.3505 6 18.0019 5.34857 18.0019 4.26V1.74C18.0019 0.651428 17.3505 0 16.2619 0ZM14.582 4.77428C14.5562 4.8 14.4962 4.83428 14.4534 4.83428L13.562 4.96285C13.5362 4.97143 13.502 4.97143 13.4762 4.97143C13.3477 4.97143 13.2362 4.92857 13.1591 4.84285C13.0562 4.74 13.0134 4.59428 13.0391 4.44L13.1677 3.54857C13.1762 3.50571 13.202 3.44571 13.2277 3.42L14.6848 1.96286C14.7105 2.02286 14.7362 2.09143 14.762 2.16C14.7962 2.22857 14.8305 2.28857 14.8648 2.34857C14.8905 2.4 14.9248 2.45143 14.9591 2.48571C14.9934 2.53714 15.0277 2.58857 15.0534 2.61428C15.0705 2.64 15.0791 2.64857 15.0877 2.65714C15.1648 2.75143 15.2505 2.83714 15.3277 2.89714C15.3448 2.91428 15.362 2.93143 15.3705 2.93143C15.4134 2.96571 15.4648 3.00857 15.4991 3.03428C15.5505 3.06857 15.5934 3.10286 15.6448 3.12857C15.7048 3.16286 15.7734 3.19714 15.842 3.23143C15.9105 3.26571 15.9791 3.29143 16.0391 3.30857L14.582 4.77428ZM16.6305 2.72571L16.3562 3C16.3391 3.02571 16.3134 3.03428 16.2877 3.03428C16.2791 3.03428 16.2705 3.03428 16.2619 3.03428C15.6448 2.85428 15.1562 2.36571 14.9762 1.74857C14.9677 1.71428 14.9762 1.68 15.002 1.65428L15.2848 1.37143C15.7477 0.908571 16.1848 0.917142 16.6391 1.37143C16.8705 1.60286 16.9819 1.82571 16.9819 2.04857C16.9734 2.27143 16.8619 2.49428 16.6305 2.72571Z" fill="white"/>
<path d="M5.99703 8.04008C7.12369 8.04008 8.03703 7.12674 8.03703 6.00008C8.03703 4.87342 7.12369 3.96008 5.99703 3.96008C4.87037 3.96008 3.95703 4.87342 3.95703 6.00008C3.95703 7.12674 4.87037 8.04008 5.99703 8.04008Z" fill="white"/>
<path opacity="0.4" d="M16.26 6.00003H15.8571V9.95146L15.7457 9.85717C15.0771 9.28289 13.9971 9.28289 13.3286 9.85717L9.76285 12.9172C9.09428 13.4915 8.01428 13.4915 7.34571 12.9172L7.05428 12.6772C6.44571 12.1457 5.47714 12.0943 4.79143 12.5572L1.58571 14.7086C1.39714 14.2286 1.28571 13.6715 1.28571 13.02V5.83717C1.28571 3.42003 2.56286 2.14289 4.98 2.14289H12V1.74003C12 1.39718 12.06 1.10575 12.1971 0.857178H4.98C1.86 0.857178 0 2.71718 0 5.83717V13.02C0 13.9543 0.162857 14.7686 0.48 15.4543C1.21714 17.0829 2.79428 18 4.98 18H12.1628C15.2828 18 17.1428 16.14 17.1428 13.02V5.80289C16.8943 5.94003 16.6028 6.00003 16.26 6.00003Z" fill="white"/>
</svg>
