<svg width="20" height="20" viewBox="0 0 20 20" fill="none" xmlns="http://www.w3.org/2000/svg">
<path d="M13.1743 20H6.82571C2.04479 20 0 18 0 13.3238V13.2C0 8.97142 1.70399 6.93333 5.52094 6.58095C5.91042 6.55238 6.28043 6.83809 6.31938 7.22857C6.35833 7.61904 6.06621 7.97142 5.65726 8.00952C2.59981 8.28571 1.46056 9.69523 1.46056 13.2095V13.3333C1.46056 17.2095 2.86271 18.581 6.82571 18.581H13.1743C17.1373 18.581 18.5394 17.2095 18.5394 13.3333V13.2095C18.5394 9.67619 17.3807 8.26666 14.2649 8.00952C13.8656 7.97142 13.5638 7.62857 13.6027 7.23809C13.6417 6.84761 13.9825 6.55238 14.3914 6.59047C18.2668 6.91428 20 8.9619 20 13.219V13.3429C20 18 17.9552 20 13.1743 20Z" fill="white"/>
<path d="M9.99981 13.6952C9.60059 13.6952 9.26953 13.3714 9.26953 12.981V0.714286C9.26953 0.32381 9.60059 0 9.99981 0C10.399 0 10.7301 0.32381 10.7301 0.714286V12.981C10.7301 13.381 10.399 13.6952 9.99981 13.6952Z" fill="white"/>
<path d="M9.99954 14.7619C9.81454 14.7619 9.62953 14.6952 9.48348 14.5524L6.22155 11.3619C5.93917 11.0857 5.93917 10.6286 6.22155 10.3524C6.50392 10.0762 6.9713 10.0762 7.25368 10.3524L9.99954 13.0381L12.7454 10.3524C13.0278 10.0762 13.4952 10.0762 13.7775 10.3524C14.0599 10.6286 14.0599 11.0857 13.7775 11.3619L10.5156 14.5524C10.3696 14.6952 10.1845 14.7619 9.99954 14.7619Z" fill="white"/>
</svg>
