<svg width="40" height="40" viewBox="0 0 40 40" fill="none" xmlns="http://www.w3.org/2000/svg">
<path opacity="0.4" d="M28.3941 -1.90735e-06H11.6258C4.34216 -1.90735e-06 0 4.34 0 11.62V28.36C0 35.66 4.34216 40 11.6258 40H28.3741C35.6578 40 39.9999 35.66 39.9999 28.38V11.62C40.0199 4.34 35.6778 -1.90735e-06 28.3941 -1.90735e-06Z" fill="white"/>
<path d="M24.5325 20L21.511 18.94V12.16H22.2314C23.8522 12.16 25.1728 13.58 25.1728 15.32C25.1728 16.14 25.8532 16.82 26.6736 16.82C27.494 16.82 28.1743 16.14 28.1743 15.32C28.1743 11.92 25.513 9.16 22.2314 9.16H21.511V8C21.511 7.18 20.8307 6.5 20.0103 6.5C19.1898 6.5 18.5095 7.18 18.5095 8V9.16H17.2089C14.2474 9.16 11.8262 11.66 11.8262 14.72C11.8262 18.3 13.9072 19.44 15.488 20L18.5095 21.06V27.82H17.7891C16.1683 27.82 14.8477 26.4 14.8477 24.66C14.8477 23.84 14.1673 23.16 13.3469 23.16C12.5265 23.16 11.8462 23.84 11.8462 24.66C11.8462 28.06 14.5075 30.82 17.7891 30.82H18.5095V32C18.5095 32.82 19.1898 33.5 20.0103 33.5C20.8307 33.5 21.511 32.82 21.511 32V30.84H22.8116C25.7731 30.84 28.1943 28.34 28.1943 25.28C28.1743 21.68 26.0933 20.54 24.5325 20ZM16.4885 17.18C15.468 16.82 14.8477 16.48 14.8477 14.74C14.8477 13.32 15.9082 12.18 17.2289 12.18H18.5295V17.9L16.4885 17.18ZM22.8116 27.84H21.511V22.12L23.532 22.82C24.5525 23.18 25.1728 23.52 25.1728 25.26C25.1728 26.68 24.1123 27.84 22.8116 27.84Z" fill="white"/>
</svg>
