<svg width="18" height="18" viewBox="0 0 18 18" fill="none" xmlns="http://www.w3.org/2000/svg">
<path opacity="0.4" d="M17.6896 7.18801C17.3385 6.66963 16.7173 6.37341 16.0061 6.37341H12.3152C12.0721 6.37341 11.8471 6.27159 11.694 6.08645C11.532 5.90131 11.469 5.64212 11.505 5.37367L11.9641 2.33743C12.1621 1.43026 11.577 0.412006 10.6948 0.10653C9.87554 -0.208202 8.91229 0.217612 8.52519 0.819307L4.72619 6.62335L4.61816 6.80848V14.9915L4.7532 15.1304L7.60695 17.3983C7.98505 17.7871 8.84027 18 9.44343 18H12.9543C14.1607 18 15.376 17.0651 15.646 15.9265L17.8606 8.9931C18.0947 8.33586 18.0317 7.69714 17.6896 7.18801Z" fill="white"/>
<path d="M2.88976 3.80927H1.96251C0.567148 3.80927 0 4.36468 0 5.73469V15.0471C0 16.4171 0.567148 16.9725 1.96251 16.9725H2.88976C4.28512 16.9725 4.85227 16.4171 4.85227 15.0471V5.73469C4.85227 4.36468 4.28512 3.80927 2.88976 3.80927Z" fill="white"/>
</svg>
