<svg width="16" height="16" viewBox="0 0 16 16" fill="none" xmlns="http://www.w3.org/2000/svg">
<path d="M13.8639 2.92879L8.84795 0.21665C8.31995 -0.0722167 7.67994 -0.0722167 7.15194 0.21665L2.13595 2.92879C1.76795 3.12939 1.54395 3.51454 1.54395 3.95587C1.54395 4.38917 1.76795 4.78235 2.13595 4.98295L7.15194 7.69509C7.41595 7.83952 7.71195 7.91174 7.99995 7.91174C8.28795 7.91174 8.58395 7.83952 8.84795 7.69509L13.8639 4.98295C14.2319 4.78235 14.4559 4.39719 14.4559 3.95587C14.4559 3.51454 14.2319 3.12939 13.8639 2.92879Z" fill="white"/>
<path opacity="0.4" d="M6.328 8.63383L1.656 6.2908C1.296 6.11427 0.88 6.13032 0.544 6.33894C0.2 6.55559 0 6.91667 0 7.31788V11.7391C0 12.5014 0.424 13.1915 1.104 13.5365L5.768 15.8796C5.928 15.9598 6.104 15.9999 6.28 15.9999C6.488 15.9999 6.696 15.9438 6.88 15.8314C7.224 15.6228 7.424 15.2537 7.424 14.8525V10.4312C7.432 9.66091 7.008 8.97084 6.328 8.63383Z" fill="white"/>
<path opacity="0.4" d="M15.4557 6.33902C15.1117 6.13039 14.6957 6.10632 14.3437 6.29087L9.67968 8.6339C8.99968 8.97894 8.57568 9.66098 8.57568 10.4313V14.8526C8.57568 15.2538 8.77568 15.6229 9.11968 15.8315C9.30368 15.9438 9.51168 16 9.71968 16C9.89568 16 10.0717 15.9599 10.2317 15.8796L14.8957 13.5366C15.5757 13.1916 15.9997 12.5095 15.9997 11.7392V7.31795C15.9997 6.91675 15.7997 6.55567 15.4557 6.33902Z" fill="white"/>
</svg>
