<svg width="40" height="40" viewBox="0 0 40 40" fill="none" xmlns="http://www.w3.org/2000/svg">
<path opacity="0.4" d="M40 11.6258V28.3741C40 35.6578 35.66 39.9999 28.38 39.9999H11.62C4.34 40.0199 0 35.6778 0 28.3941V11.6258C0 4.34216 4.34 0 11.62 0H28.36C35.66 0 40 4.34216 40 11.6258Z" fill="white"/>
<path d="M20 32.5162C16.42 32.5162 13.62 30.7354 11.72 28.9745V30.3952C11.72 31.2156 11.04 31.8959 10.22 31.8959C9.4 31.8959 8.72 31.2156 8.72 30.3952V24.8924C8.72 24.072 9.4 23.3917 10.22 23.3917H15.18C16 23.3917 16.68 24.072 16.68 24.8924C16.68 25.7129 16 26.3932 15.18 26.3932H13.38C14.86 27.8739 17.16 29.5148 20 29.5148C25.24 29.5148 29.5 25.2526 29.5 20.01C29.5 19.1896 30.18 18.5093 31 18.5093C31.82 18.5093 32.5 19.1896 32.5 20.01C32.5 26.9135 26.9 32.5162 20 32.5162ZM9 21.5108C8.18 21.5108 7.5 20.8304 7.5 20.01C7.5 13.1066 13.1 7.50378 20 7.50378C24.3 7.50378 27.46 9.36471 29.5 11.1456V9.62484C29.5 8.80443 30.18 8.12409 31 8.12409C31.82 8.12409 32.5 8.80443 32.5 9.62484V15.1076C32.5 15.1676 32.5 15.2276 32.5 15.2677C32.48 15.4878 32.42 15.6879 32.32 15.868C32.22 16.048 32.08 16.2081 31.9 16.3482C31.76 16.4482 31.6 16.5283 31.42 16.5883C31.28 16.6283 31.14 16.6483 31 16.6483H26.14C25.32 16.6483 24.64 15.968 24.64 15.1476C24.64 14.3272 25.32 13.6468 26.14 13.6468H27.8C26.2 12.1661 23.62 10.5253 20.04 10.5253C14.8 10.5253 10.54 14.7874 10.54 20.03C10.5 20.8304 9.82 21.5108 9 21.5108Z" fill="white"/>
</svg>
