<svg width="24" height="24" viewBox="0 0 24 24" fill="none" xmlns="http://www.w3.org/2000/svg">
<path opacity="0.4" d="M12 21C16.9706 21 21 16.9706 21 12C21 7.02944 16.9706 3 12 3C7.02944 3 3 7.02944 3 12C3 16.9706 7.02944 21 12 21Z" fill="white"/>
<path d="M12.0002 13.575C12.3692 13.575 12.6752 13.269 12.6752 12.9V8.39998C12.6752 8.03098 12.3692 7.72498 12.0002 7.72498C11.6312 7.72498 11.3252 8.03098 11.3252 8.39998V12.9C11.3252 13.269 11.6312 13.575 12.0002 13.575Z" fill="white"/>
<path d="M12.8281 15.258C12.7831 15.15 12.7201 15.051 12.6391 14.961C12.5491 14.88 12.4501 14.817 12.3421 14.772C12.1261 14.682 11.8741 14.682 11.6581 14.772C11.5501 14.817 11.4511 14.88 11.3611 14.961C11.2801 15.051 11.2171 15.15 11.1721 15.258C11.1271 15.366 11.1001 15.483 11.1001 15.6C11.1001 15.717 11.1271 15.834 11.1721 15.942C11.2171 16.059 11.2801 16.149 11.3611 16.239C11.4511 16.32 11.5501 16.383 11.6581 16.428C11.7661 16.473 11.8831 16.5 12.0001 16.5C12.1171 16.5 12.2341 16.473 12.3421 16.428C12.4501 16.383 12.5491 16.32 12.6391 16.239C12.7201 16.149 12.7831 16.059 12.8281 15.942C12.8731 15.834 12.9001 15.717 12.9001 15.6C12.9001 15.483 12.8731 15.366 12.8281 15.258Z" fill="white"/>
</svg>
