<svg width="40" height="40" viewBox="0 0 40 40" fill="none" xmlns="http://www.w3.org/2000/svg">
<path d="M35.9774 12.0536L32.8009 15.1103L26.4053 8.95584L29.5818 5.89912C30.4772 5.0375 31.6284 4.6272 32.7796 4.6272C33.9308 4.6272 35.082 5.0375 35.9774 5.89912C37.7468 7.60186 37.7468 10.3509 35.9774 12.0536Z" fill="white"/>
<path opacity="0.4" d="M32.8016 15.1103L8.26373 38.723C6.49427 40.4257 3.63756 40.4257 1.86811 38.723C0.0986518 37.0202 0.0986518 34.2712 1.86811 32.5685L26.406 8.95581L32.8016 15.1103Z" fill="white"/>
<path d="M15.6159 3.84758L16.49 0.99601C16.5753 0.729316 16.49 0.442107 16.2981 0.236958C16.1063 0.0318088 15.7652 -0.0502509 15.488 0.0318088L12.5247 0.87292L9.5614 0.0318088C9.28426 -0.0502509 8.9858 0.0318088 8.77261 0.216443C8.55942 0.421592 8.49547 0.708801 8.58074 0.975495L9.43349 3.84758L8.55942 6.69916C8.47415 6.96585 8.55942 7.25306 8.75129 7.45821C8.96448 7.66336 9.26294 7.7249 9.54008 7.64284L12.5247 6.82225L15.488 7.66336C15.5733 7.68388 15.6372 7.70439 15.7225 7.70439C15.9357 7.70439 16.1276 7.62233 16.2981 7.47873C16.5113 7.27358 16.5753 6.98637 16.49 6.71967L15.6159 3.84758Z" fill="white"/>
<path d="M7.08956 16.1565L7.96363 13.305C8.0489 13.0383 7.96363 12.7511 7.77176 12.5459C7.55857 12.3408 7.26011 12.2792 6.98296 12.3613L3.99834 13.1819L1.03504 12.3408C0.757892 12.2587 0.45943 12.3408 0.246242 12.5254C0.0330549 12.7306 -0.0309011 13.0178 0.0543739 13.2845L0.907123 16.1565L0.0330551 19.0081C-0.0522198 19.2748 0.0330549 19.562 0.224924 19.7672C0.438111 19.9723 0.736573 20.0339 1.01372 19.9518L3.97702 19.1107L6.94033 19.9518C7.00428 19.9723 7.08956 19.9723 7.17483 19.9723C7.38802 19.9723 7.57989 19.8903 7.75044 19.7467C7.96363 19.5415 8.02758 19.2543 7.94231 18.9876L7.08956 16.1565Z" fill="white"/>
<path d="M39.068 26.414L39.9421 23.5624C40.0273 23.2957 39.9421 23.0085 39.7502 22.8034C39.537 22.5982 39.2385 22.5367 38.9614 22.6188L35.9981 23.4599L33.0348 22.6188C32.7576 22.5367 32.4592 22.6188 32.246 22.8034C32.0328 23.0085 31.9688 23.2957 32.0541 23.5624L32.9282 26.414L32.0541 29.2656C31.9688 29.5323 32.0541 29.8195 32.246 30.0246C32.4592 30.2298 32.7576 30.2913 33.0348 30.2093L35.9981 29.3682L38.9614 30.2093C39.0254 30.2298 39.1106 30.2298 39.1959 30.2298C39.4091 30.2298 39.601 30.1477 39.7715 30.0041C39.9847 29.799 40.0487 29.5118 39.9634 29.2451L39.068 26.414Z" fill="white"/>
</svg>
