<svg width="16" height="16" viewBox="0 0 16 16" fill="none" xmlns="http://www.w3.org/2000/svg">
<path d="M15.2377 9.82867V11.5734C15.2377 14.3468 13.5843 16.0001 10.811 16.0001H4.42626C2.48341 16.0001 1.08151 15.1848 0.42627 13.7372L0.510079 13.6763L4.25864 11.162C4.86816 10.7506 5.72911 10.7963 6.27006 11.2687L6.52911 11.482C7.12339 11.9925 8.08339 11.9925 8.67768 11.482L11.8472 8.76201C12.4415 8.25153 13.4015 8.25153 13.9958 8.76201L15.2377 9.82867Z" fill="white"/>
<path opacity="0.4" d="M14.4533 5.33338H12.2133C11.2457 5.33338 10.6666 4.75433 10.6666 3.78672V1.54672C10.6666 1.24196 10.7276 0.982915 10.8343 0.761963C10.8266 0.761963 10.819 0.761963 10.8114 0.761963H4.42665C1.65333 0.761963 0 2.41529 0 5.18862V11.5734C0 12.4038 0.144761 13.1276 0.426665 13.7372L0.510475 13.6762L4.25904 11.1619C4.86856 10.7505 5.72951 10.7962 6.27046 11.2686L6.52951 11.4819C7.12379 11.9924 8.08379 11.9924 8.67807 11.4819L11.8476 8.76194C12.4419 8.25147 13.4019 8.25147 13.9962 8.76194L15.2381 9.8286V5.18862C15.2381 5.181 15.2381 5.17338 15.2381 5.16576C15.0171 5.27243 14.7581 5.33338 14.4533 5.33338Z" fill="white"/>
<path d="M5.33335 7.14668C6.33482 7.14668 7.14668 6.33482 7.14668 5.33335C7.14668 4.33187 6.33482 3.52002 5.33335 3.52002C4.33187 3.52002 3.52002 4.33187 3.52002 5.33335C3.52002 6.33482 4.33187 7.14668 5.33335 7.14668Z" fill="white"/>
<path d="M14.4533 0H12.2133C11.2457 0 10.6666 0.579046 10.6666 1.54666V3.78666C10.6666 4.75427 11.2457 5.33332 12.2133 5.33332H14.4533C15.4209 5.33332 15.9999 4.75427 15.9999 3.78666V1.54666C15.9999 0.579046 15.4209 0 14.4533 0ZM15.1695 2.99428C15.0933 3.07047 14.979 3.1238 14.8571 3.13142H13.7828L13.7904 4.19046C13.7828 4.31999 13.7371 4.42665 13.6457 4.51808C13.5695 4.59427 13.4552 4.64761 13.3333 4.64761C13.0819 4.64761 12.8761 4.44189 12.8761 4.19046V3.1238L11.8095 3.13142C11.5581 3.13142 11.3523 2.91809 11.3523 2.66666C11.3523 2.41523 11.5581 2.20952 11.8095 2.20952L12.8761 2.21714V1.15047C12.8761 0.899045 13.0819 0.685712 13.3333 0.685712C13.5847 0.685712 13.7904 0.899045 13.7904 1.15047L13.7828 2.20952H14.8571C15.1085 2.20952 15.3142 2.41523 15.3142 2.66666C15.3066 2.79618 15.2533 2.90285 15.1695 2.99428Z" fill="white"/>
</svg>
