<svg width="40" height="40" viewBox="0 0 40 40" fill="none" xmlns="http://www.w3.org/2000/svg">
<path opacity="0.4" d="M20 40C31.0457 40 40 31.0457 40 20C40 8.9543 31.0457 0 20 0C8.9543 0 0 8.9543 0 20C0 31.0457 8.9543 40 20 40Z" fill="white"/>
<path d="M27.4193 27.86C27.1593 27.86 26.8993 27.8 26.6593 27.64L20.4593 23.94C18.9193 23.02 17.7793 21 17.7793 19.22V11.02C17.7793 10.2 18.4593 9.51999 19.2793 9.51999C20.0993 9.51999 20.7793 10.2 20.7793 11.02V19.22C20.7793 19.94 21.3793 21 21.9993 21.36L28.1993 25.06C28.9193 25.48 29.1393 26.4 28.7193 27.12C28.4193 27.6 27.9193 27.86 27.4193 27.86Z" fill="white"/>
</svg>
