<svg width="24" height="24" viewBox="0 0 24 24" fill="none" xmlns="http://www.w3.org/2000/svg">
<path opacity="0.4" d="M4.36903 15.2199L8.78381 19.6391C10.5965 21.4536 13.5397 21.4536 15.3621 19.6391L19.6405 15.3565C21.4532 13.542 21.4532 10.5959 19.6405 8.77164L15.2159 4.36221C14.2901 3.43545 13.0134 2.93792 11.7075 3.00621L6.83468 3.24034C4.88555 3.32814 3.33599 4.87924 3.23853 6.82056L3.00464 11.6982C2.94616 13.0152 3.44319 14.2932 4.36903 15.2199Z" fill="white"/>
<path d="M9.56359 12.3714C11.1137 12.3714 12.3703 11.1135 12.3703 9.56187C12.3703 8.0102 11.1137 6.75232 9.56359 6.75232C8.01346 6.75232 6.75684 8.0102 6.75684 9.56187C6.75684 11.1135 8.01346 12.3714 9.56359 12.3714Z" fill="white"/>
<path d="M12.9746 17.61C12.7894 17.61 12.6042 17.5417 12.4581 17.3953C12.1754 17.1124 12.1754 16.6442 12.4581 16.3613L16.3563 12.4591C16.6389 12.1762 17.1067 12.1762 17.3894 12.4591C17.672 12.742 17.672 13.2103 17.3894 13.4932L13.4911 17.3953C13.3449 17.5417 13.1597 17.61 12.9746 17.61Z" fill="white"/>
</svg>
