<svg width="36" height="40" viewBox="0 0 36 40" fill="none" xmlns="http://www.w3.org/2000/svg">
<path opacity="0.4" d="M17.9999 40C27.9409 40 35.9997 32.2367 35.9997 22.6601C35.9997 13.0836 27.9409 5.32027 17.9999 5.32027C8.05881 5.32027 0 13.0836 0 22.6601C0 32.2367 8.05881 40 17.9999 40Z" fill="white"/>
<path d="M18.0004 23.4998C17.1492 23.4998 16.4434 22.8198 16.4434 21.9998V11.9999C16.4434 11.1799 17.1492 10.4999 18.0004 10.4999C18.8516 10.4999 19.5575 11.1799 19.5575 11.9999V21.9998C19.5575 22.8198 18.8516 23.4998 18.0004 23.4998Z" fill="white"/>
<path d="M23.9986 2.89998H11.9987C11.1683 2.89998 10.5039 2.25998 10.5039 1.45999C10.5039 0.659995 11.1683 0 11.9987 0H23.9986C24.8291 0 25.4934 0.639995 25.4934 1.43999C25.4934 2.23998 24.8291 2.89998 23.9986 2.89998Z" fill="white"/>
</svg>
