<svg width="14" height="16" viewBox="0 0 14 16" fill="none" xmlns="http://www.w3.org/2000/svg">
<path opacity="0.4" d="M14 4V12C14 14.4 12.8333 16 10.1111 16H3.88889C1.16667 16 0 14.4 0 12V4C0 1.6 1.16667 0 3.88889 0H10.1111C12.8333 0 14 1.6 14 4Z" fill="white"/>
<path d="M12.0557 5.7999H10.5001C9.31787 5.7999 8.36121 4.8159 8.36121 3.5999V1.9999C8.36121 1.6719 8.62565 1.3999 8.94454 1.3999C9.26343 1.3999 9.52787 1.6719 9.52787 1.9999V3.5999C9.52787 4.1519 9.96343 4.5999 10.5001 4.5999H12.0557C12.3745 4.5999 12.639 4.8719 12.639 5.1999C12.639 5.5279 12.3745 5.7999 12.0557 5.7999Z" fill="white"/>
<path d="M6.99986 9.39995H3.88875C3.56986 9.39995 3.30542 9.12795 3.30542 8.79995C3.30542 8.47195 3.56986 8.19995 3.88875 8.19995H6.99986C7.31875 8.19995 7.5832 8.47195 7.5832 8.79995C7.5832 9.12795 7.31875 9.39995 6.99986 9.39995Z" fill="white"/>
<path d="M10.111 12.5999H3.88875C3.56986 12.5999 3.30542 12.3279 3.30542 11.9999C3.30542 11.6719 3.56986 11.3999 3.88875 11.3999H10.111C10.4299 11.3999 10.6943 11.6719 10.6943 11.9999C10.6943 12.3279 10.4299 12.5999 10.111 12.5999Z" fill="white"/>
</svg>
