<svg width="18" height="18" viewBox="0 0 18 18" fill="none" xmlns="http://www.w3.org/2000/svg">
<path opacity="0.4" d="M6.30078 4.68V13.311C6.30078 16.2 8.10185 18 10.9836 18H13.316C16.1977 18 17.9988 16.2 17.9988 13.32V4.68C18.0078 1.8 16.2067 0 13.325 0H10.9836C8.10185 0 6.30078 1.8 6.30078 4.68Z" fill="white"/>
<path d="M3.21266 5.50804L0.195867 8.52304C-0.0652889 8.78404 -0.0652889 9.21604 0.195867 9.47704L3.21266 12.492C3.47382 12.753 3.90608 12.753 4.16723 12.492C4.42839 12.231 4.42839 11.799 4.16723 11.538L2.30312 9.67504H11.9299C12.2991 9.67504 12.6053 9.36904 12.6053 9.00004C12.6053 8.63104 12.2991 8.32504 11.9299 8.32504H2.30312L4.16723 6.46204C4.30231 6.32704 4.36535 6.15604 4.36535 5.98504C4.36535 5.81404 4.30231 5.63404 4.16723 5.50804C3.90608 5.23804 3.48283 5.23804 3.21266 5.50804Z" fill="white"/>
</svg>
