<svg width="40" height="40" viewBox="0 0 40 40" fill="none" xmlns="http://www.w3.org/2000/svg">
<path opacity="0.4" d="M40 11.62V23.8L36.74 21C35.18 19.66 32.66 19.66 31.1 21L22.78 28.14C21.22 29.48 18.7 29.48 17.14 28.14L16.46 27.58C15.04 26.34 12.78 26.22 11.18 27.3L1.34 33.9L1.12 34.06C0.38 32.46 0 30.56 0 28.38V11.62C0 4.34 4.34 0 11.62 0H28.38C35.66 0 40 4.34 40 11.62Z" fill="white"/>
<path d="M13.9983 16.76C16.6272 16.76 18.7583 14.6289 18.7583 12C18.7583 9.37112 16.6272 7.23999 13.9983 7.23999C11.3694 7.23999 9.23828 9.37112 9.23828 12C9.23828 14.6289 11.3694 16.76 13.9983 16.76Z" fill="white"/>
<path d="M40.0011 23.8V28.38C40.0011 35.66 35.6611 40 28.3811 40H11.6211C6.5211 40 2.84109 37.86 1.12109 34.06L1.34109 33.9L11.1811 27.3C12.7811 26.22 15.0411 26.34 16.4611 27.58L17.1411 28.14C18.7011 29.48 21.2211 29.48 22.7811 28.14L31.1011 21C32.6611 19.66 35.1811 19.66 36.7411 21L40.0011 23.8Z" fill="white"/>
</svg>
