<svg width="14" height="16" viewBox="0 0 14 16" fill="none" xmlns="http://www.w3.org/2000/svg">
<path opacity="0.4" d="M7 16.0001C10.866 16.0001 14 12.8947 14 9.06412C14 5.2335 10.866 2.12817 7 2.12817C3.13401 2.12817 0 5.2335 0 9.06412C0 12.8947 3.13401 16.0001 7 16.0001Z" fill="white"/>
<path d="M7.00019 9.39991C6.66916 9.39991 6.39465 9.12791 6.39465 8.79992V4.79995C6.39465 4.47195 6.66916 4.19995 7.00019 4.19995C7.33122 4.19995 7.60573 4.47195 7.60573 4.79995V8.79992C7.60573 9.12791 7.33122 9.39991 7.00019 9.39991Z" fill="white"/>
<path d="M9.33282 1.15999H4.66615C4.3432 1.15999 4.08484 0.903993 4.08484 0.583996C4.08484 0.263998 4.3432 0 4.66615 0H9.33282C9.65577 0 9.91413 0.255998 9.91413 0.575996C9.91413 0.895993 9.65577 1.15999 9.33282 1.15999Z" fill="white"/>
</svg>
