<svg width="24" height="24" viewBox="0 0 24 24" fill="none" xmlns="http://www.w3.org/2000/svg">
<path d="M19.1893 8.42416L17.7599 9.79968L14.8818 7.03017L16.3113 5.65464C16.7142 5.26691 17.2322 5.08228 17.7503 5.08228C18.2683 5.08228 18.7864 5.26691 19.1893 5.65464C19.9855 6.42087 19.9855 7.65792 19.1893 8.42416Z" fill="white"/>
<path opacity="0.4" d="M17.7599 9.79967L6.7179 20.4254C5.92164 21.1916 4.63612 21.1916 3.83987 20.4254C3.04361 19.6591 3.04361 18.4221 3.83987 17.6559L14.8819 7.03015L17.7599 9.79967Z" fill="white"/>
<path d="M10.0262 4.73141L10.4196 3.4482C10.4579 3.32819 10.4196 3.19895 10.3332 3.10663C10.2469 3.01431 10.0934 2.97739 9.96868 3.01431L8.63519 3.39281L7.3017 3.01431C7.17699 2.97739 7.04268 3.01431 6.94675 3.0974C6.85081 3.18972 6.82203 3.31896 6.86041 3.43897L7.24414 4.73141L6.85081 6.01462C6.81244 6.13463 6.85081 6.26388 6.93715 6.35619C7.03309 6.44851 7.1674 6.47621 7.29211 6.43928L8.63519 6.07001L9.96868 6.44851C10.0071 6.45774 10.0358 6.46698 10.0742 6.46698C10.1701 6.46698 10.2565 6.43005 10.3332 6.36543C10.4292 6.27311 10.4579 6.14387 10.4196 6.02385L10.0262 4.73141Z" fill="white"/>
<path d="M6.1903 10.2705L6.58363 8.98727C6.622 8.86725 6.58363 8.73801 6.49729 8.64569C6.40136 8.55338 6.26705 8.52568 6.14233 8.56261L4.79925 8.93188L3.46577 8.55338C3.34105 8.51645 3.20674 8.55338 3.11081 8.63646C3.01487 8.72878 2.98609 8.85802 3.02447 8.97804L3.40821 10.2705L3.01487 11.5537C2.9765 11.6737 3.01487 11.8029 3.10122 11.8953C3.19715 11.9876 3.33146 12.0153 3.45617 11.9783L4.78966 11.5998L6.12315 11.9783C6.15193 11.9876 6.1903 11.9876 6.22867 11.9876C6.32461 11.9876 6.41095 11.9506 6.4877 11.886C6.58363 11.7937 6.61241 11.6645 6.57404 11.5445L6.1903 10.2705Z" fill="white"/>
<path d="M20.5804 14.8863L20.9737 13.6031C21.0121 13.4831 20.9737 13.3538 20.8874 13.2615C20.7915 13.1692 20.6571 13.1415 20.5324 13.1784L19.1989 13.5569L17.8655 13.1784C17.7407 13.1415 17.6064 13.1784 17.5105 13.2615C17.4146 13.3538 17.3858 13.4831 17.4242 13.6031L17.8175 14.8863L17.4242 16.1695C17.3858 16.2895 17.4242 16.4188 17.5105 16.5111C17.6064 16.6034 17.7407 16.6311 17.8655 16.5942L19.1989 16.2157L20.5324 16.5942C20.5612 16.6034 20.5996 16.6034 20.638 16.6034C20.7339 16.6034 20.8202 16.5665 20.897 16.5018C20.9929 16.4095 21.0217 16.2803 20.9833 16.1603L20.5804 14.8863Z" fill="white"/>
</svg>
