<svg width="36" height="40" viewBox="0 0 36 40" fill="none" xmlns="http://www.w3.org/2000/svg">
<path d="M27.5004 4.45304V1.44579C27.5004 0.655427 26.8204 0 26.0004 0C25.1804 0 24.5004 0.655427 24.5004 1.44579V4.33738H11.5004V1.44579C11.5004 0.655427 10.8204 0 10.0004 0C9.18044 0 8.50044 0.655427 8.50044 1.44579V4.45304C3.10044 4.93497 0.480458 8.03861 0.0804584 12.6459C0.0404584 13.2049 0.520458 13.6676 1.08046 13.6676H34.9204C35.5004 13.6676 35.9804 13.1856 35.9204 12.6459C35.5204 8.03861 32.9004 4.93497 27.5004 4.45304Z" fill="white"/>
<path opacity="0.4" d="M34 16.5586C35.1 16.5586 36 17.4261 36 18.4863V30.3611C36 36.1443 33 39.9997 26 39.9997H10C3 39.9997 0 36.1443 0 30.3611V18.4863C0 17.4261 0.9 16.5586 2 16.5586H34Z" fill="white"/>
<path d="M18 26.5068C17.74 26.5068 17.48 26.449 17.24 26.3526C17 26.2562 16.78 26.1212 16.58 25.9477C16.22 25.5815 16 25.0803 16 24.5791C16 24.0778 16.22 23.5767 16.58 23.2104C16.78 23.0369 17 22.9019 17.24 22.8055C17.72 22.5935 18.28 22.5935 18.76 22.8055C19 22.9019 19.22 23.0369 19.42 23.2104C19.78 23.5767 20 24.0778 20 24.5791C20 25.0803 19.78 25.5815 19.42 25.9477C19.22 26.1212 19 26.2562 18.76 26.3526C18.52 26.449 18.26 26.5068 18 26.5068Z" fill="white"/>
<path d="M11 26.506C10.74 26.506 10.48 26.4482 10.24 26.3518C9.99999 26.2554 9.78002 26.1204 9.58002 25.9469C9.40002 25.7542 9.25997 25.5421 9.15997 25.3108C9.05997 25.0795 9 24.8289 9 24.5783C9 24.3277 9.05997 24.0771 9.15997 23.8457C9.25997 23.6144 9.40002 23.4024 9.58002 23.2096C9.78002 23.0361 9.99999 22.9011 10.24 22.8047C10.72 22.612 11.28 22.612 11.76 22.8047C12 22.9011 12.22 23.0361 12.42 23.2096C12.6 23.4024 12.74 23.6144 12.84 23.8457C12.94 24.0771 13 24.3277 13 24.5783C13 24.8289 12.94 25.0795 12.84 25.3108C12.74 25.5421 12.6 25.7542 12.42 25.9469C12.22 26.1204 12 26.2554 11.76 26.3518C11.52 26.4482 11.26 26.506 11 26.506Z" fill="white"/>
<path d="M11 33.2531C10.74 33.2531 10.48 33.1953 10.24 33.0989C9.99999 33.0025 9.78002 32.8675 9.58002 32.694C9.22002 32.3277 9 31.8265 9 31.3253C9 30.8241 9.22002 30.3229 9.58002 29.9567C9.78002 29.7832 9.99999 29.6482 10.24 29.5518C10.72 29.359 11.28 29.359 11.76 29.5518C12 29.6482 12.22 29.7832 12.42 29.9567C12.78 30.3229 13 30.8241 13 31.3253C13 31.8265 12.78 32.3277 12.42 32.694C12.22 32.8675 12 33.0025 11.76 33.0989C11.52 33.1953 11.26 33.2531 11 33.2531Z" fill="white"/>
</svg>
