<svg width="40" height="40" viewBox="0 0 40 40" fill="none" xmlns="http://www.w3.org/2000/svg">
<path opacity="0.4" d="M39.9999 11.62V23.7999L36.7399 20.9999C35.1799 19.6599 32.6599 19.6599 31.0999 20.9999L22.7799 28.1399C21.2199 29.4799 18.6999 29.4799 17.1399 28.1399L16.46 27.5799C15.04 26.3399 12.78 26.2199 11.18 27.2999L1.34 33.8999L1.12 34.0599C0.379999 32.4599 0 30.5599 0 28.3799V11.62C0 4.33999 4.33999 0 11.62 0H28.3799C35.6599 0 39.9999 4.33999 39.9999 11.62Z" fill="white"/>
<path d="M14.0002 16.7602C16.6291 16.7602 18.7602 14.6291 18.7602 12.0002C18.7602 9.37133 16.6291 7.24021 14.0002 7.24021C11.3714 7.24021 9.24023 9.37133 9.24023 12.0002C9.24023 14.6291 11.3714 16.7602 14.0002 16.7602Z" fill="white"/>
<path d="M39.999 23.8V28.38C39.999 35.66 35.659 40 28.3791 40H11.6191C6.51913 40 2.83914 37.86 1.11914 34.06L1.33914 33.9L11.1791 27.3C12.7791 26.22 15.0391 26.34 16.4591 27.58L17.1391 28.14C18.6991 29.48 21.2191 29.48 22.7791 28.14L31.0991 21.0001C32.659 19.6601 35.179 19.6601 36.739 21.0001L39.999 23.8Z" fill="white"/>
</svg>
