<svg width="16" height="16" viewBox="0 0 16 16" fill="none" xmlns="http://www.w3.org/2000/svg">
<path opacity="0.4" d="M16 4.64799V9.51997L14.696 8.39997C14.072 7.86398 13.064 7.86398 12.44 8.39997L9.11197 11.256C8.48798 11.792 7.47998 11.792 6.85598 11.256L6.58398 11.032C6.01598 10.536 5.11199 10.488 4.47199 10.92L0.535999 13.56L0.447999 13.624C0.152 12.984 0 12.224 0 11.352V4.64799C0 1.73599 1.73599 0 4.64799 0H11.352C14.264 0 16 1.73599 16 4.64799Z" fill="white"/>
<path d="M5.60004 6.70399C6.65159 6.70399 7.50403 5.85154 7.50403 4.79999C7.50403 3.74844 6.65159 2.896 5.60004 2.896C4.54849 2.896 3.69604 3.74844 3.69604 4.79999C3.69604 5.85154 4.54849 6.70399 5.60004 6.70399Z" fill="white"/>
<path d="M15.9996 9.52004V11.352C15.9996 14.264 14.2636 16 11.3516 16H4.64762C2.60763 16 1.13563 15.144 0.447632 13.624L0.535632 13.56L4.47162 10.92C5.11162 10.488 6.01562 10.536 6.58361 11.032L6.85561 11.256C7.47961 11.792 8.48761 11.792 9.11161 11.256L12.4396 8.40005C13.0636 7.86405 14.0716 7.86405 14.6956 8.40005L15.9996 9.52004Z" fill="white"/>
</svg>
