<svg width="16" height="16" viewBox="0 0 16 16" fill="none" xmlns="http://www.w3.org/2000/svg">
<path opacity="0.4" d="M12.9383 14.8H12.1153V14.6C12.1153 13.72 11.3745 13 10.4692 13H8.61735V11.168C8.41159 11.192 8.20583 11.2 8.00007 11.2C7.79431 11.2 7.58855 11.192 7.3828 11.168V13H5.53096C4.62563 13 3.88489 13.72 3.88489 14.6V14.8H3.06186C2.72441 14.8 2.44458 15.072 2.44458 15.4C2.44458 15.728 2.72441 16 3.06186 16H12.9383C13.2757 16 13.5556 15.728 13.5556 15.4C13.5556 15.072 13.2757 14.8 12.9383 14.8Z" fill="white"/>
<path opacity="0.4" d="M2.66664 7.71204C2.12343 7.51204 1.64607 7.18404 1.26748 6.81604C0.502052 5.99204 0 5.00805 0 3.85605C0 2.70405 0.930031 1.80005 2.1152 1.80005H2.5761C2.36211 2.22405 2.23866 2.69605 2.23866 3.20005V5.60004C2.23866 6.35204 2.3868 7.06404 2.66664 7.71204Z" fill="white"/>
<path opacity="0.4" d="M16.0004 3.85605C16.0004 5.00805 15.4983 5.99204 14.7329 6.81604C14.3543 7.18404 13.8769 7.51204 13.3337 7.71204C13.6136 7.06404 13.7617 6.35204 13.7617 5.60004V3.20005C13.7617 2.69605 13.6383 2.22405 13.4243 1.80005H13.8852C15.0703 1.80005 16.0004 2.70405 16.0004 3.85605Z" fill="white"/>
<path d="M10.4686 0H5.53043C3.71152 0 2.23828 1.432 2.23828 3.2V5.59999C2.23828 8.69599 4.81438 11.2 7.99953 11.2C11.1847 11.2 13.7608 8.69599 13.7608 5.59999V3.2C13.7608 1.432 12.2876 0 10.4686 0ZM10.337 5.15999L9.82667 5.76799C9.74437 5.85599 9.68676 6.03199 9.69499 6.15199L9.74437 6.93599C9.77729 7.41599 9.42339 7.66399 8.96249 7.48799L8.21352 7.19999C8.0983 7.15999 7.90077 7.15999 7.78554 7.19999L7.03658 7.48799C6.57568 7.66399 6.22178 7.41599 6.2547 6.93599L6.30408 6.15199C6.31231 6.03199 6.2547 5.85599 6.17239 5.76799L5.66211 5.15999C5.34113 4.79199 5.48104 4.384 5.9584 4.264L6.74029 4.072C6.86374 4.04 7.01189 3.928 7.07773 3.824L7.51394 3.168C7.78554 2.76 8.21352 2.76 8.48513 3.168L8.92133 3.824C8.98718 3.928 9.13532 4.04 9.25878 4.072L10.0407 4.264C10.518 4.384 10.6579 4.79199 10.337 5.15999Z" fill="white"/>
</svg>
