<svg width="24" height="24" viewBox="0 0 24 24" fill="none" xmlns="http://www.w3.org/2000/svg">
<path d="M20.9999 11.01V4.89C20.9999 3.54 20.3936 3 18.8873 3H15.0599C13.5536 3 12.9473 3.54 12.9473 4.89V11.01C12.9473 12.36 13.5536 12.9 15.0599 12.9H18.8873C20.3936 12.9 20.9999 12.36 20.9999 11.01Z" fill="white"/>
<path d="M11.0526 12.99V19.11C11.0526 20.46 10.4463 21 8.94 21H5.11263C3.60632 21 3 20.46 3 19.11V12.99C3 11.64 3.60632 11.1 5.11263 11.1H8.94C10.4463 11.1 11.0526 11.64 11.0526 12.99Z" fill="white"/>
<path opacity="0.4" d="M20.9999 19.11V16.59C20.9999 15.24 20.3936 14.7 18.8873 14.7H15.0599C13.5536 14.7 12.9473 15.24 12.9473 16.59V19.11C12.9473 20.46 13.5536 21 15.0599 21H18.8873C20.3936 21 20.9999 20.46 20.9999 19.11Z" fill="white"/>
<path opacity="0.4" d="M11.0526 7.41V4.89C11.0526 3.54 10.4463 3 8.94 3H5.11263C3.60632 3 3 3.54 3 4.89V7.41C3 8.76 3.60632 9.3 5.11263 9.3H8.94C10.4463 9.3 11.0526 8.76 11.0526 7.41Z" fill="white"/>
</svg>
