<svg width="24" height="24" viewBox="0 0 24 24" fill="none" xmlns="http://www.w3.org/2000/svg">
<path d="M17.5834 23.9998H6.41935C2.5789 23.9998 0 21.4209 0 17.5805V11.9985C0 8.55991 2.12118 6.07033 5.41458 5.65726C5.72718 5.6126 6.07327 5.5791 6.41935 5.5791H17.5834C17.8514 5.5791 18.1975 5.59026 18.5547 5.64608C21.8481 6.02566 24.0028 8.52642 24.0028 11.9985V17.5805C24.0028 21.4209 21.4239 23.9998 17.5834 23.9998ZM6.41935 7.25372C6.15141 7.25372 5.89464 7.27603 5.63787 7.30952C3.18177 7.62212 1.67461 9.40838 1.67461 11.9985V17.5805C1.67461 20.4608 3.53902 22.3252 6.41935 22.3252H17.5834C20.4638 22.3252 22.3282 20.4608 22.3282 17.5805V11.9985C22.3282 9.38606 20.7987 7.58865 18.3203 7.29838C18.0523 7.25372 17.8179 7.25372 17.5834 7.25372H6.41935Z" fill="white"/>
<path d="M5.51506 7.32086C5.24712 7.32086 5.00151 7.19806 4.83405 6.97478C4.64426 6.718 4.62193 6.38308 4.76707 6.10398C4.95686 5.7244 5.22479 5.35598 5.57088 5.02106L9.19921 1.38156C11.0524 -0.460519 14.0668 -0.460519 15.92 1.38156L17.8737 3.35762C18.6999 4.1726 19.2022 5.26668 19.2581 6.42775C19.2692 6.68452 19.1687 6.9301 18.979 7.09756C18.7892 7.26503 18.5324 7.3432 18.2868 7.29854C18.0635 7.26505 17.8291 7.25388 17.5834 7.25388H6.41935C6.15141 7.25388 5.89464 7.27619 5.63787 7.30969C5.60437 7.32085 5.55972 7.32086 5.51506 7.32086ZM7.37946 5.57926H17.3825C17.2374 5.19969 17.0029 4.85361 16.6903 4.54101L14.7254 2.55381C13.5309 1.37041 11.5772 1.37041 10.3714 2.55381L7.37946 5.57926Z" fill="white"/>
<path d="M23.1654 17.86H19.8162C18.1193 17.86 16.7461 16.4868 16.7461 14.7899C16.7461 13.0929 18.1193 11.7197 19.8162 11.7197H23.1654C23.6232 11.7197 24.0028 12.0993 24.0028 12.557C24.0028 13.0148 23.6232 13.3943 23.1654 13.3943H19.8162C19.0459 13.3943 18.4207 14.0195 18.4207 14.7899C18.4207 15.5602 19.0459 16.1854 19.8162 16.1854H23.1654C23.6232 16.1854 24.0028 16.5649 24.0028 17.0227C24.0028 17.4804 23.6232 17.86 23.1654 17.86Z" fill="white"/>
</svg>
