<svg xmlns="http://www.w3.org/2000/svg" xmlns:xlink="http://www.w3.org/1999/xlink" viewBox="0 0 512 512"><defs><style>.cls-1{isolation:isolate;}.cls-2{fill:#1e1e1e;}.cls-3{fill:url(#Degradado_sin_nombre_93);}.cls-10,.cls-11,.cls-4,.cls-5,.cls-6,.cls-9{mix-blend-mode:soft-light;}.cls-4{fill:url(#Degradado_sin_nombre_5);}.cls-5{fill:url(#Degradado_sin_nombre_5-2);}.cls-6{fill:url(#Degradado_sin_nombre_5-3);}.cls-7{fill:url(#Degradado_sin_nombre_93-2);}.cls-8{fill:#3f244c;opacity:0.2;mix-blend-mode:multiply;}.cls-9{fill:url(#Degradado_sin_nombre_26);}.cls-10{fill:url(#Degradado_sin_nombre_26-2);}.cls-11{fill:url(#Degradado_sin_nombre_26-3);}</style><linearGradient id="Degradado_sin_nombre_93" x1="136.23" y1="185.46" x2="246.34" y2="396.49" gradientUnits="userSpaceOnUse"><stop offset="0.06" stop-color="#48d4ad"/><stop offset="1" stop-color="#3451ad"/></linearGradient><linearGradient id="Degradado_sin_nombre_5" x1="267.47" y1="110.38" x2="253.45" y2="181.98" gradientUnits="userSpaceOnUse"><stop offset="0" stop-color="#ffe496" stop-opacity="0"/><stop offset="1" stop-color="#efec53"/></linearGradient><linearGradient id="Degradado_sin_nombre_5-2" x1="364.62" y1="420.4" x2="395.26" y2="351.26" xlink:href="#Degradado_sin_nombre_5"/><linearGradient id="Degradado_sin_nombre_5-3" x1="146.45" y1="420.65" x2="118.95" y2="358.58" xlink:href="#Degradado_sin_nombre_5"/><linearGradient id="Degradado_sin_nombre_93-2" x1="258.57" y1="272.75" x2="305.46" y2="387.7" xlink:href="#Degradado_sin_nombre_93"/><linearGradient id="Degradado_sin_nombre_26" x1="247.61" y1="250.17" x2="263.28" y2="280.22" gradientUnits="userSpaceOnUse"><stop offset="0" stop-color="#ffe496"/><stop offset="1" stop-color="#efec53"/></linearGradient><linearGradient id="Degradado_sin_nombre_26-2" x1="265.13" y1="283.27" x2="282.63" y2="316.82" xlink:href="#Degradado_sin_nombre_26"/><linearGradient id="Degradado_sin_nombre_26-3" x1="225.25" y1="264.92" x2="254.12" y2="320.24" xlink:href="#Degradado_sin_nombre_26"/></defs><g class="cls-1"><g id="Layer_1" data-name="Layer 1"><rect class="cls-2" width="512" height="512" rx="72"/><path class="cls-3" d="M424.91,414.32h-94.3l-15.1-13.07-60.45-52.38-60,52.3L180,414.32H86.37L136,320.48,209.2,182.06l6.06-11.44,38.1-72,38.13,70.13,6.45,11.91,76.54,140.87,48.16,88.59C423.39,411.52,424.17,412.9,424.91,414.32Z"/><path class="cls-4" d="M297.94,180.68l-6.45-11.91L253.36,98.64l-38.1,72-6.06,11.44a122.41,122.41,0,0,1,88.74-1.38Z"/><path class="cls-5" d="M422.64,410.14l-48.16-88.59a122.28,122.28,0,0,1-59,79.7l15.1,13.07h94.3C424.17,412.9,423.39,411.52,422.64,410.14Z"/><path class="cls-6" d="M136,320.48,86.37,414.32H180l15.06-13.15A122.26,122.26,0,0,1,136,320.48Z"/><path class="cls-7" d="M300.3,265.6H211l34,64.27,10.05,19,10.05-18.49,34.59-63.65C299.9,266.34,300.1,266,300.3,265.6Z"/><polygon class="cls-8" points="86.39 414.32 255.06 348.85 211.02 265.6 86.39 414.32"/><polygon class="cls-8" points="300.3 265.6 255.06 348.85 424.93 414.32 300.3 265.6"/><polygon class="cls-8" points="253.37 98.64 211.02 265.6 300.3 265.6 253.37 98.64"/><path class="cls-9" d="M211,265.6H300.3s-17.51,29.45-44.94,29.45S211,265.6,211,265.6Z"/><path class="cls-10" d="M300.3,265.6l-45.24,83.25a53.29,53.29,0,0,1,.3-53.8C272,266.36,300.3,265.6,300.3,265.6Z"/><path class="cls-11" d="M211,265.6l44,83.25s12.61-24.36.3-53.8S211,265.6,211,265.6Z"/></g></g></svg>